<svg id="Layer_1" data-name="Layer 1" xmlns="http://www.w3.org/2000/svg" viewBox="0 0 110 135"><defs><style>.cls-1{fill:#fff}</style></defs><path class="cls-1" d="M0 116.9a2.18 2.18 0 0 0 2.3-2.2V96.8a2.87 2.87 0 0 0-2.2-3V93c1.3 0 2.6.1 3.9.1s2.6-.1 4-.1v.8c-1.4.4-1.9 1.2-1.9 3.1 0 1-.1 3.3-.1 6.5v12.1a23 23 0 0 0 3.7.2c6 0 7.1-1.1 7.9-3.3l1.3.6-1.5 5a9.6 9.6 0 0 0-3.3-.6H2.6c-.9 0-1.8.1-2.6.1zM22 98c1 0 2 .1 3 .1s2-.1 3-.1v.6c-1.3.2-1.6 1-1.6 2.8v8c0 3.7 1.7 6.5 5.9 6.5 2.3 0 5.1-1.3 5.1-4.6V108c0-3.3-.3-6.7-.3-8.1a1.59 1.59 0 0 0-1.4-1.4v-.6c1 0 2 .1 3 .1s2-.1 3-.1v.6c-.9 0-1.3 1.1-1.3 2.1s-.1 4-.1 7.7v6.2c0 1.6.3 2.4 1.5 2.5v.6c-.8 0-1.6-.1-2.4-.1s-1.6.1-2.3.1c.1-.9.1-1.8.2-2.6-2 1.9-3.8 3-6.6 3-4.1 0-7.4-2.4-7.4-6.6v-4.8c0-2.2-.1-4.1-.1-5.9 0-1.1-.2-2-1.4-2.1V98zm25.7 19c1.1-.3 1.7-1.1 1.7-2.7l.1-16.7h1.2l13.6 15.2V103c0-3.5-.8-4.4-2.1-4.6v-.6c.9 0 1.8.1 2.8.1s1.9-.1 2.8-.1v.6c-1.2.2-1.8 1.2-1.8 3.5V118h-1l-13.8-15.3.1 10.7c0 2.2.7 3.2 2 3.5v.6c-.9 0-1.8-.1-2.8-.1s-1.8.1-2.7.1v-.5zm25.7 0c1.1-.3 1.4-.8 1.4-2v-8.2c0-2.5-.3-4.7-.3-6.1 0-1.2-.4-2-1.4-2.3v-.5c1.3 0 2.6.1 3.9.1s2.6-.1 3.9-.1c7.6 0 12.2 3.3 12.2 9.7s-3.6 9.9-11.4 9.9c-1.4 0-2.8-.1-4.2-.1s-2.8.1-4.2.1v-.5zm4.5-.7a21.75 21.75 0 0 0 3.5.2c5.3 0 8-3.3 8-8.7 0-5.1-3.5-8.7-8.4-8.7-1 0-1.9 0-3 .1 0 2.5-.1 4.8-.1 7.1zm20.1-2.6h1.1a4.53 4.53 0 0 0 4.6 3 3.56 3.56 0 0 0 3.6-3.5c0-6-9.5-2.3-9.5-9.9 0-3.6 3.1-5.8 6.4-5.8a11.43 11.43 0 0 1 5 1.3l.3 3h-1a4.41 4.41 0 0 0-4.2-3.1 3.55 3.55 0 0 0-3.8 3.5c0 5 9.5 2.1 9.5 9.4a6.24 6.24 0 0 1-6.5 6.2 10.92 10.92 0 0 1-5.4-1.1v-3zM47.8 70.4v3.5c0 .2.8.5.8.5H46s.8-.3.8-.5v-3l-.8.2V71zm16.1.1a2.39 2.39 0 0 0-1.9 1.7 2.35 2.35 0 0 1 .8-.2 1.27 1.27 0 0 1 1.4 1.2c0 .8-.7 1.3-1.6 1.3a1.61 1.61 0 0 1-1.7-1.6 2.62 2.62 0 0 1 3-2.4zm-1.3 1.8a.85.85 0 0 0-.6.2v.6c0 .4.1 1.2.7 1.2s.6-.6.6-1-.1-1-.7-1zm-4-1.8a2.39 2.39 0 0 0-1.9 1.7 2.35 2.35 0 0 1 .8-.2 1.27 1.27 0 0 1 1.4 1.2c0 .8-.7 1.3-1.6 1.3a1.61 1.61 0 0 1-1.7-1.6 2.62 2.62 0 0 1 3-2.4zm-1.3 1.8a.85.85 0 0 0-.6.2v.6c0 .4.1 1.2.7 1.2s.6-.6.6-1-.1-1-.7-1zm-4-1.8a2.39 2.39 0 0 0-1.9 1.7 2.35 2.35 0 0 1 .8-.2 1.27 1.27 0 0 1 1.4 1.2c0 .8-.7 1.3-1.6 1.3a1.61 1.61 0 0 1-1.7-1.6 2.62 2.62 0 0 1 3-2.4zM52 72.3a.85.85 0 0 0-.6.2v.6c0 .4.1 1.2.7 1.2s.6-.6.6-1-.1-1-.7-1zM18.4 36.7a7.54 7.54 0 0 1 1.3.6.6.6 0 0 0-.1.4c-.1.3 0 .7-.1 1.3a2.55 2.55 0 0 1-2.8 2.3 2.59 2.59 0 0 1-1.9-3.2 3.57 3.57 0 0 1 .5-1.3v-.3l1.3.1s-1.3.8-1.4 1.5a1.81 1.81 0 0 0 1.6 2.1 2 2 0 0 0 2.4-1.5c.1-.7-.8-2-.8-2zm12-19.1l-2.7 2.8s.2-.8-.1-1.1l-2.1-2c-.3-.3-1.1 0-1.1 0l1.7-1.8s-.2.9.1 1.1l2.2 2.1c.2.2.3.2.5 0l.6-.7a4.51 4.51 0 0 0 .4-1.6zm-2.3-4.1l1.8-1.5s-.2.8 0 1.1l1.8 2.3c.2.3 1.1.2 1.1.2L31 17s.2-.8 0-1l-1.9-2.3c-.2-.3-1-.2-1-.2zm6.3 0c.2.4 1.1.4 1.1.4l-1.5.9s.3-.7.1-1l-1.8-2.9a5.64 5.64 0 0 1-.7-.1l1.3-.8 4.2 1.1-1.2-1.9c-.3-.5-1.1-.4-1.1-.4l1.6-1s-.4.7-.2.9l2.1 3.4-.3.2-4.9-1.3zm26.7-6.3s.7 1.3 1.3 1.4a.78.78 0 0 0 1-.5c.2-1.1-2.1-1.5-1.8-3 .1-.7.9-1 1.7-.9.6.1.9.4 1.1.4h.4l-.1 1.2s-.7-1.2-1.3-1.3c-.4-.1-.8.1-.8.3-.1.7 1 1 1.7 2a1.3 1.3 0 0 1 .2 1 1.51 1.51 0 0 1-1.8 1 5.19 5.19 0 0 1-1.2-.5c-.1 0-.1 0-.2.1h-.2zM67 5.4l2.2.7s-.8.2-.9.6l-.9 2.8c-.1.3.4 1 .4 1l-2.2-.7s.8-.2.9-.5l.9-2.8a1.65 1.65 0 0 0-.4-1.1zm6.8 6.3l-.5 1a4.14 4.14 0 0 1-1.9-.5c-1.7-.8-2-2.2-1.4-3.4a2.4 2.4 0 0 1 3.4-.9 6.53 6.53 0 0 1 1.3.9h.2l.2.1-.6 1.2-.2-.1a1.5 1.5 0 0 0-.8-1.8 1.8 1.8 0 0 0-2.5 1 2 2 0 0 0 .6 2.7 2.35 2.35 0 0 0 .8.2l.5-.9c.2-.3-.5-1.1-.5-1.1l2.2 1.1s-.7.2-.8.5zm3.5-1.5l1.9 1.3s-.8 0-1 .3l-1.7 2.4c-.2.3.1 1.1.1 1.1l-2-1.3s.8 0 1-.3l1.7-2.4a1.91 1.91 0 0 0 0-1.1zm6.8 12.9L81.6 20s.8.3 1.1.1l2.3-1.8c.3-.3.2-1.1.2-1.1l1.6 1.9s-.8-.3-1.1-.1l-2.4 1.9c-.2.2-.2.3 0 .5l.6.7c.3.4 1.6.6 1.6.6zm-3.2-4L78 16.4s.9.2 1.1-.1l2-2.2c.3-.3 0-1.1 0-1.1l1.8 1.7s-.9-.2-1.1.1l-2 2.2c-.2.2-.2.3 0 .5l.7.6a3.87 3.87 0 0 0 1.6.3zm7.1 3.1a3.77 3.77 0 0 0 .4-1.2l1.3 2.2s-.9-.5-1.1-.1l-1.5 2.2 2.8-.2c.3 0 .3-1 .3-1l1 1.6a3 3 0 0 0-1.4-.2l-4.3.4zm3.2 6l-2.5.7c-.5.1-.8.9-.8.9l-.6-1.5a1.54 1.54 0 0 0 1.2.2l2.6-.7c.4-.1.6-.7.6-.7l.5 1.5-2.4 2.4 3.4.3.5 1.5a1.12 1.12 0 0 0-1-.2l-2.5 1.1c-.6.2-.7 1-.7 1l-.8-2.2s.5.6 1 .4c.1 0 .2-.1.3-.1l2.4-1-4-.7-.1-.2zm.4 16.4c-.4 0-.9.7-.9.7l.1-1.8s.4.6.7.6l3.4.1a3.81 3.81 0 0 1 .5-.6l-.1 1.5-3.2 3 2.2.1c.5 0 .9-.7.9-.7l-.1 1.8s-.4-.7-.6-.7l-3.9-.2V48l3.8-3.4zm3.2 6.2l-.4 2.3s-.3-.8-.7-.8l-2.9-.6c-.4-.1-.9.5-.9.5l.5-2.3s.3.7.7.8l2.9.6c.2.1.8-.5.8-.5zm-4.7 12.4l.7-1.4-1.5-.7-.5 1a1.35 1.35 0 0 0 .1 1l-1.3-.7a1.41 1.41 0 0 0 .9-.6l.5-1-1.2-.6c-.3-.1-.4-.1-.5.1l-.6 1.1c-.2.4.2 1.3.2 1.3l-1-.6 2-3.9s0 1 .3 1.2l2.6 1.3c.4.2 1.1-.3 1.1-.3l-1.8 3.7-1-.4c0-.1.8-.2 1-.5zm-7.6 6s-1.5-.1-1.9.3a.79.79 0 0 0-.1 1.1c.8.8 2.4-.9 3.5.1a1.32 1.32 0 0 1-.2 1.9 7.61 7.61 0 0 1-.9.7l-.2.3-.9-.7s1.4 0 1.8-.4a.65.65 0 0 0 .1-.9c-.5-.5-1.4.3-2.6.3a1.28 1.28 0 0 1-1-.4 1.55 1.55 0 0 1 .1-2.1 5.83 5.83 0 0 1 1.1-.7.14.14 0 0 0 0-.2l.1-.1zm-1.6 5.9l-1.8 1.4s.3-.8 0-1.1l-1.8-2.3c-.2-.3-1-.2-1-.2l1.8-1.4s-.2.8 0 1l1.8 2.3c.2.3 1 .3 1 .3zm-20.2 9l-2.3.2s.6-.5.6-.9l-.3-2.9c0-.4-.8-.7-.8-.7l2.3-.2s-.6.5-.6.9l.3 2.9c.1.3.8.7.8.7zM56 81.2s-.9-1.1-1.5-1.1a.81.81 0 0 0-.9.7c0 1.1 2.3 1.1 2.3 2.5 0 .7-.6 1.2-1.5 1.2a4.17 4.17 0 0 1-1.1-.2 1 1 0 0 0-.3.1l-.1-1.2s.9 1 1.5 1c.4 0 .7-.2.7-.5 0-.7-1.2-.8-2-1.7a1.28 1.28 0 0 1-.4-1 1.35 1.35 0 0 1 1.6-1.3 6.3 6.3 0 0 1 1.3.3 1 1 0 0 0 .3-.1zm-12.8-1.7l.3-1.1a4.52 4.52 0 0 1 2 .1c1.8.5 2.4 1.7 2 3.1a2.49 2.49 0 0 1-3.2 1.6 11.25 11.25 0 0 1-1.5-.7h-.4l.4-1.3s.7 1.4 1.4 1.6a1.75 1.75 0 0 0 2.2-1.5 1.93 1.93 0 0 0-1.2-2.5 1.1 1.1 0 0 0-.8 0l-.3 1c-.2.6.7 1 .7 1l-2.4-.6c.1-.1.7-.4.8-.7zm-14.6-9.7l-.9.9 1.8 1.7.9-1c.3-.3.1-1.1.1-1.1l1.7 1.6a2.29 2.29 0 0 0-1.1.1l-2 2.1c-.3.3-.1 1.1-.1 1.1l-1.7-1.6s.8.2 1.1-.1l.8-.8-1.8-1.7-.8.8c-.3.3-.1 1.1-.1 1.1l-1.7-1.6s.8.2 1.1-.1l2-2.1c.3-.3.1-1.1.1-1.1l1.7 1.6s-.8-.1-1.1.2zM16 51.5l2.6-.2c.5 0 .9-.7.9-.7l.2 1.6a1.79 1.79 0 0 0-1.1-.5l-2.7.2c-.4 0-.8.6-.8.6l-.2-1.5 2.9-1.8-3.2-1-.2-1.6a1.05 1.05 0 0 0 .9.4l2.7-.5a1.41 1.41 0 0 0 .9-.8l.3 2.3s-.4-.6-.8-.6a.37.37 0 0 0-.3.1l-2.6.5 3.9 1.1v.2zm78.1-13.2a2.48 2.48 0 0 0 .8-.9l.2 2.5s-.6-.8-1-.5l-2 1.1 2.4 1.1c.3.1.6-.7.6-.7l.2 1.9a2.91 2.91 0 0 0-1.1-.8l-3.8-1.7zM93 54.9a2.72 2.72 0 0 0 1.1-.5l-.8 2.4s-.2-.9-.7-.9l-2.3.3 1.8 1.9c.2.2.9-.4.9-.4l-.6 1.8a3.26 3.26 0 0 0-.8-1.2l-2.9-3zm-75.3 2.9a3 3 0 0 0-.6 1.1l-.8-2.4s.7.6 1.1.3l1.7-1.6-2.6-.5c-.3 0-.5.8-.5.8l-.6-1.8a2.78 2.78 0 0 0 1.3.5l4.1.7zM34 74.1c.2-.3-.2-1.2-.2-1.2l2.2 1.5s-.9-.1-1.1.2l-2 3 .7.5c.5.3 1.4-.1 1.4-.1l-.8.9-3.8-2.7.5-1.1s-.1 1 .4 1.3l.7.5zm29 5.7c-.1-.4-1-.6-1-.6l2.6-.6s-.7.6-.6 1l.8 3.4.8-.2c.6-.1.9-1.1.9-1.1l.2 1.2-4.6 1.1-.4-1.1s.7.7 1.3.6l.8-.2zm10.2-4c-.2-.3-1.1-.3-1.1-.3l2.3-1.3s-.5.8-.3 1.1l1.8 3.1.8-.4c.5-.3.5-1.3.5-1.3l.5 1.1-4 2.4-.7-.9s.9.5 1.4.2l.8-.4zm18.4-39.7a.7.7 0 1 1 .7.7.68.68 0 0 1-.7-.7zM49.4 81.7a.7.7 0 1 1 .7.7.68.68 0 0 1-.7-.7zM16.1 43.8a.7.7 0 1 1 .7.7.68.68 0 0 1-.7-.7zm6.4-20.7a1.63 1.63 0 0 1-.6-2.3c.7-.9 1.9-.7 2.9 0 .8.6 1.3 1.5.7 2.3s-1.8.9-3 0zm-.3 1.1a2.47 2.47 0 0 0 3.5-.8 2.54 2.54 0 0 0-.4-3.7 2.33 2.33 0 0 0-3.4.8 2.41 2.41 0 0 0 .3 3.7zM41.5 8.9l-1.5.4.1-2.1zm.9-.6l1.3-.5a2.63 2.63 0 0 1 1.3 0l-1-1.2a1.43 1.43 0 0 1-.4.8l-1.5.6-1.2-1.5 2-.7a5.31 5.31 0 0 1 1.1.3l-.8-.8L39 6.7s.5.1.4.9l-.1 3.1a5.34 5.34 0 0 1-.4 1.1l1.6-.6s-.7-.3-.6-.6l.1-.9 1.7-.5 1 1.2 3.9-1.5-.9-.9s.3.7-.2.8l-2.1.8zM21.6 28.8c.3.2 1.1-.4 1.1-.4l-1.1 2.3s0-.9-.4-1l-2.6-1.2c-.3-.1-1.1.3-1.1.3l.3-.9a5.82 5.82 0 0 1 .5-1.1c.5-1 .8-1.5 1.3-1.6a1.39 1.39 0 0 1 .9 0c.5.2.7.8.6 1.5a10.55 10.55 0 0 1 1.9-.5 4.78 4.78 0 0 0 1.1-.6c-.1.1-.1.2-.2.4a2.47 2.47 0 0 1-1.1 1.3 13.32 13.32 0 0 0-1.9.5l-.2.5zm-1.3-.6l.1-.3c.4-.8.3-1.4-.4-1.7s-1.2.1-1.5.7l-.2.3zm-1.4 6.2l.6.5c.3.2.9-.5.9-.5l-.6 1.9a2.38 2.38 0 0 0-.6-1.1l-3.5-3 4.6-.7a2.8 2.8 0 0 0 1-.5l-.7 2.4s-.2-.9-.5-.8l-.8.1zm-1.5-1.2l1.3 1 .4-1.3zM22.3 61c.3-.2.4-1.1.4-1.1l1.2 2.2s-.7-.5-1.1-.3l-2.6 1.4c-.3.2-.4 1.1-.4 1.1a5.58 5.58 0 0 0-.5-.8c-.2-.4-.5-.8-.6-1-.5-1-.7-1.5-.5-2a1.06 1.06 0 0 1 .6-.7 1.31 1.31 0 0 1 1.6.4c.1-.6.5-1.1.7-1.8.1-.4.2-1.2.2-1.2l.2.4c.4.8.5 1.2.3 1.7s-.6 1.2-.8 1.8l.3.5zm-1.2.6l-.1-.3c-.4-.8-.9-1.1-1.6-.7s-.7 1-.3 1.7l.2.3zm.9 6.3a2.41 2.41 0 0 1 .3-3.5 2.46 2.46 0 0 1 3.6.7c1 1.4.7 2.8-.3 3.5a2.46 2.46 0 0 1-3.6-.7zm3.6-2.8a1.63 1.63 0 0 0-2.4-.1c-1 .7-1.5 1.8-.8 2.7a1.62 1.62 0 0 0 2.4.2 2 2 0 0 0 .8-2.8zm12.2 15.7a2.35 2.35 0 0 1-1.4-3.2 2.62 2.62 0 0 1 3.6-1.1 2.46 2.46 0 0 1 1.5 3.2 2.72 2.72 0 0 1-3.7 1.1zm1.9-4.1c-.9-.4-1.7.2-2.2 1.1-.5 1.1-.4 2.3.6 2.8a1.65 1.65 0 0 0 2.2-1c.6-1.3.3-2.5-.6-2.9zm45.1-11.5c-.3-.2-1.1.1-1.1.1l1.5-2.1s-.1.8.2 1.1l2.3 1.7c.3.2 1.1-.1 1.1-.1a3.51 3.51 0 0 0-.5.8 8.65 8.65 0 0 1-.7 1c-.6 1-1 1.4-1.5 1.4a1.49 1.49 0 0 1-.9-.2 1.29 1.29 0 0 1-.3-1.6c-.6.1-1.2 0-2 .1l-1.2.3c.1-.1.1-.2.3-.4.5-.7.9-1 1.4-1s1.4 0 2-.1l.3-.5zm1.2.9l-.2.2c-.5.7-.6 1.3 0 1.8s1.2.2 1.6-.4l.2-.3zm-16 12v-.8c0-.4-.9-.4-.9-.4l1.9-.7a2.21 2.21 0 0 0-.5 1.1l-.2 4.6-3.4-3.2a2.91 2.91 0 0 0-1-.5l2.3-.9s-.6.7-.3.9l.6.6zm-.1 2v-1.6l-1.2.5zm-14.5-66a2.6 2.6 0 0 0-.7-.9l2.5.2s-.8.4-.7.9l.8 2.1 1.4-2.2c.1-.2-.6-.7-.6-.7l1.8.1a2.2 2.2 0 0 0-.9 1L56.8 18zm-20.3 7.5a2.1 2.1 0 0 0-1.2-.2l1.9-1.5s-.3.9.1 1.1l2 1-.4-2.6c-.1-.3-.9-.2-.9-.2l1.4-1.1a2.63 2.63 0 0 0 0 1.3l.7 4zm38.1-1.3a2.21 2.21 0 0 0 0-1.2l1.8 1.7s-.9-.2-1.1.3l-.7 2.3 2.5-.9c.2-.1 0-.9 0-.9l1.3 1.2a2.42 2.42 0 0 0-1.3.2L72 24.2zm-30.3-.5c.2.3 1.1.4 1.1.4l-2.3 1.1s.5-.7.4-1.1L40.6 17l-.8.4c-.5.2-.6 1.2-.6 1.2l-.4-1.1 4.1-1.9.6 1s-.8-.5-1.3-.3l-.8.4zm18.7-4.9l-.9 2.4c-.2.4.3 1.1.3 1.1l-1.5-.5a1.88 1.88 0 0 0 .9-.8l.9-2.4c.1-.3-.2-.9-.2-.9l1.4.4.5 3.3 2.1-2.5 1.5.4s-.6.1-.7.6l-.6 2.6a1.54 1.54 0 0 0 .3 1.1l-2.2-.7s.7-.1.9-.5c0-.1.1-.2.1-.3l.6-2.5-2.6 3h-.2zm17.7 10.9l-1-1.2-1.3 1 .7.9c.2.3.9.3.9.3l-1.1.9a1 1 0 0 0-.2-1l-.6-.8-1 .8c-.2.2-.3.3-.1.4l.7.9c.3.4 1.2.4 1.2.4l-1 .6-2.6-3.4s.9.4 1.1.2l2.2-1.8c.3-.2.2-1 .2-1l2.4 3.1-.8.7c.2 0 .5-.7.3-1zm-28.1-8.7c0 .4.9.7.9.7l-2.5.3s.7-.5.6-.9l-.2-2.8c0-.3-.8-.7-.8-.7.4-.1.6-.1.9-.2s.9-.1 1.2-.2a2.8 2.8 0 0 1 2 .3.91.91 0 0 1 .4.8c.1.5-.3 1-.9 1.3.5.3.8.9 1.4 1.3a4.12 4.12 0 0 0 1 .6.6.6 0 0 0-.4.1c-.9.1-1.3 0-1.6-.3s-.9-1-1.4-1.4h-.7zm-.1-1.3h.3c.9-.1 1.3-.4 1.3-1.2s-.7-1-1.4-.9h-.4zM28.3 28.2c.2-.3.4-.7.6-1s.3-.5.5-.8c.8-1.2 1.4-1.6 2.1-1.7a2 2 0 0 1 1.6.4 2.37 2.37 0 0 1 .9 1.5 3.24 3.24 0 0 1-.8 2.4l-1.3 1.9s.1-.8-.3-1l-2.3-1.6c-.3-.4-1-.1-1-.1zm3.9.8c.4.3.5.3.8-.2a1.87 1.87 0 0 0-.4-2.8 2.15 2.15 0 0 0-1.5-.4 2 2 0 0 0-1.3 1c-.1.2-.2.3-.3.5zm-3.4 5.3l.6.6c.2.2.9-.4.9-.4l-.7 1.8a2.88 2.88 0 0 0-.4-1.1L26.1 32l4.5-.2a1.91 1.91 0 0 0 1-.4l-.9 2.2s-.1-.9-.4-.8h-.8zm-1.3-1.4l1.1 1.1.5-1.2zm42.9-15.7a2.24 2.24 0 0 1 1.1 3.2 2.47 2.47 0 0 1-3.5.8 2.35 2.35 0 0 1-1.2-3.2 2.5 2.5 0 0 1 3.6-.8zm-2 3.8c.9.5 1.7-.1 2.2-.9.6-1 .6-2.2-.4-2.7a1.63 1.63 0 0 0-2.2.8c-.7 1.2-.5 2.3.4 2.8z"/><path class="cls-1" d="M70.6 24.6c-1.5-1.2-1-1.1-1.4-2.4s-.1-3.1-.4-3.4.7-.3 1 2.5.8 3.3.8 3.3z"/><path class="cls-1" d="M33.2 81.1a43 43 0 1 1 21.8 6 42.44 42.44 0 0 1-21.5-5.8l-.7-.4-.5.7.7.5A43.36 43.36 0 0 0 55 88a43.93 43.93 0 1 0-22.4-6.1l.5.3.4-.8z"/><path class="cls-1" d="M37.7 72a32.91 32.91 0 0 1 9.2-59.8l.3-.8a33.57 33.57 0 0 0-9.9 61.2l.5.3.3-.5z"/><path class="cls-1" d="M37.7 72.7a33.58 33.58 0 1 0 10.9-61.8l-.1.7a33.87 33.87 0 0 1 6.4-.6 32.9 32.9 0 0 1 .1 65.8 32.27 32.27 0 0 1-16.9-4.7l-.5-.3-.6.5zM54.6 7.9a1.61 1.61 0 0 1-.9-.3 1.7 1.7 0 0 1-.6-.6"/><path class="cls-1" d="M55.1 5.2l1.1-1.1a4.35 4.35 0 0 1 .6.7 2.92 2.92 0 0 1 .2.9l-1.6.1 1.4.7a3.51 3.51 0 0 1-.5.8 2 2 0 0 1-.8.4l-.6-1.4-.3 1.6a1.61 1.61 0 0 1-.9-.3 1.7 1.7 0 0 1-.6-.6l1.2-1-1.5.2a1.39 1.39 0 0 1 0-.9 2 2 0 0 1 .4-.8l1.3.8-.8-1.3a1.4 1.4 0 0 1 .9-.3 2.77 2.77 0 0 1 .9.1zm16 29.7a1 1 0 0 1-.8-.6.56.56 0 0 1 .2-.6h.2c.2 0 .2-.1.2-.3s-.2-.4-.4-.3-.4.1-.6 0-.1-.2 0-.3a1 1 0 0 1 .1-.3c0-.1-.2-.2-.3-.2s-.3.1-.3.2.1.3.2.3a.19.19 0 0 1 0 .3c0 .1-.4.2-.4.2h-.1a.3.3 0 1 0 0 .6c.1 0 .2-.1.3-.2a.69.69 0 0 1 .3.5c0 .3-.1.5-.6.7a.94.94 0 0 1-.7-.1.4.4 0 0 1-.5.3c-.6-.1-.7-.8-.7-.8a.44.44 0 0 0 .4-.3c.1-.3-.1-.4-.4-.5s-.4.3-.7.1.1-.6-.2-.8-.5.2-.5.2a10 10 0 0 1 1.1 1.4c.5.7 1.2 1.5 1.2 1.5l-.3.2-1.2-1.7a10 10 0 0 0-1.1-1.4s0-.1.2-.3a1.16 1.16 0 0 1 1-.4c.4.2.2.8.2.8a.88.88 0 0 1 .6-.2c.4.1.8.4.7.8s-.4.6-.4.6 0 .2.3.2.4-.4.4-.4.6.5.9.1a.1.1 0 0 1 .1-.1h-.1a.7.7 0 0 1 0-1.4h.2a.46.46 0 0 1-.3-.5.75.75 0 0 1 .7-.7c.3 0 .7.3.7.6a.76.76 0 0 1-.2.5c.1-.1.2-.1.4-.1a.7.7 0 0 1 0 1.4h-.1a.76.76 0 0 0 .4.2c.5.1.5-.3.5-.3s.2.2.4.1c.4-.1.3-.3.3-.3a.84.84 0 0 1-.6-.4.49.49 0 0 1 .2-.8 1 1 0 0 1 .7-.1s-.4-.5-.1-.8a.92.92 0 0 1 1-.1l.4.2a5.19 5.19 0 0 0-.5 1.6l-.5 2.1-.4-.1s.2-1.2.4-2a2.71 2.71 0 0 1 .5-1.3s-.4-.3-.6 0 .3.5.1.7-.5 0-.7.1-.2.3-.1.5a.52.52 0 0 0 .5.1 1.1 1.1 0 0 1-.3 1.1c-.3.2-.7-.1-.7-.1a.59.59 0 0 1-.6.6z"/><path class="cls-1" d="M67.8 36.2c0-.4 1.1-.8 2.5-1s2.6 0 2.7.4-1.1.8-2.5 1-2.6 0-2.7-.4zm2.4 0c.9-.1 1.5-.3 1.4-.5a2.84 2.84 0 0 0-1.6-.1 3.55 3.55 0 0 0-1.6.4c.1.2 1 .3 1.8.2zm9.9-2.6a1 1 0 0 1-.8-.6.56.56 0 0 1 .2-.6h.2c.2 0 .2-.1.2-.3s-.2-.4-.4-.3-.4.1-.6 0-.1-.2 0-.3a1 1 0 0 1 .1-.3c0-.1-.2-.2-.3-.2s-.3.1-.3.2.1.3.2.3a.19.19 0 0 1 0 .3c0 .1-.4.2-.4.2h-.1a.3.3 0 0 0 0 .6c.1 0 .2-.1.3-.2a.69.69 0 0 1 .3.5c0 .3-.1.5-.6.7a.94.94 0 0 1-.7-.1.4.4 0 0 1-.5.3c-.6-.1-.7-.8-.7-.8a.44.44 0 0 0 .4-.3c.1-.3-.1-.4-.4-.5s-.4.3-.7.1.1-.6-.2-.8-.5.2-.5.2a10 10 0 0 1 1.1 1.4c.5.7 1.2 1.5 1.2 1.5l-.1.5-1.2-1.7a10 10 0 0 0-1.1-1.4s0-.1.2-.3a1.16 1.16 0 0 1 1-.4c.4.2.2.8.2.8a.88.88 0 0 1 .6-.2c.4.1.8.4.7.8s-.4.6-.4.6 0 .2.3.2.4-.4.4-.4.6.5.9.1a.1.1 0 0 1 .1-.1h-.1a.7.7 0 1 1 0-1.4h.2a.46.46 0 0 1-.3-.5.75.75 0 0 1 .7-.7c.3 0 .7.3.7.6a.76.76 0 0 1-.2.5c.1-.1.2-.1.4-.1a.7.7 0 1 1 0 1.4H80c-.1.2.1.2.2.2.5.1.5-.3.5-.3s.2.2.4.1c.4-.1.3-.3.3-.3a.84.84 0 0 1-.6-.4.49.49 0 0 1 .2-.8 1 1 0 0 1 .7-.1s-.4-.5-.1-.8a.92.92 0 0 1 1-.1l.4.2a5.19 5.19 0 0 0-.5 1.6l-.5 2.1-.4-.1s.2-1.2.4-2a2.71 2.71 0 0 1 .5-1.3s-.4-.3-.6 0 .3.5.1.7-.5 0-.7.1-.2.3-.1.5a.52.52 0 0 0 .5.1 1.1 1.1 0 0 1-.3 1.1c-.3.2-.7-.1-.7-.1s0 .3-.6.3z"/><path class="cls-1" d="M76.8 34.9c0-.4 1.1-.8 2.5-1s2.6 0 2.7.4-1.1.8-2.5 1-2.7 0-2.7-.4zm2.5 0c.9-.1 1.5-.3 1.4-.5a2.84 2.84 0 0 0-1.6-.1 3.55 3.55 0 0 0-1.6.4c.1.2.9.3 1.8.2zm-3 4.8a1 1 0 0 1-.8-.6.56.56 0 0 1 .2-.6h.2c.2 0 .2-.1.2-.3s-.2-.4-.4-.3-.4.1-.6 0-.1-.2 0-.3a1 1 0 0 1 .1-.3c0-.1-.2-.2-.3-.2s-.3.1-.3.2.1.3.2.3a.19.19 0 0 1 0 .3c0 .1-.4.2-.4.2h-.1a.3.3 0 0 0 0 .6c.1 0 .2-.1.3-.2a.69.69 0 0 1 .3.5c0 .3-.1.5-.6.7a.94.94 0 0 1-.7-.1s.1.5-.3.5c-.6-.1-.7-.8-.7-.8a.44.44 0 0 0 .4-.3c.1-.3-.1-.4-.4-.5s-.4.3-.7.1.1-.6-.2-.8-.5.2-.5.2a10 10 0 0 1 1.1 1.4c.5.7 1.2 1.5 1.2 1.5l-.3.2-1.2-1.7a10 10 0 0 0-1.1-1.4s0-.1.2-.3a1.16 1.16 0 0 1 1-.4c.4.2.2.8.2.8a.88.88 0 0 1 .6-.2c.4.1.8.4.7.8s-.4.6-.4.6 0 .2.3.2.4-.4.4-.4.6.5.9.1a.1.1 0 0 1 .1-.1h-.1a.7.7 0 0 1 0-1.4h.2a.46.46 0 0 1-.3-.5.75.75 0 0 1 .7-.7c.3 0 .7.3.7.6a.76.76 0 0 1-.2.5c.1-.1.2-.1.4-.1a.7.7 0 1 1 0 1.4h-.1a.76.76 0 0 0 .4.2c.5.1.5-.3.5-.3s.2.2.4.1c.4-.1.3-.3.3-.3a.84.84 0 0 1-.6-.4.49.49 0 0 1 .2-.8 1 1 0 0 1 .7-.1s-.4-.5-.1-.8a.92.92 0 0 1 1-.1l.4.2a5.19 5.19 0 0 0-.5 1.6l-.5 2.1-.4-.1s.2-1.2.4-2a2.71 2.71 0 0 1 .5-1.3s-.4-.3-.6 0 .3.5.1.7-.5 0-.7.1-.2.3-.1.5a.52.52 0 0 0 .5.1 1.1 1.1 0 0 1-.3 1.1c-.3.2-.7-.1-.7-.1a.71.71 0 0 1-.8.4z"/><path class="cls-1" d="M73.1 41c0-.4 1.1-.8 2.5-1s2.6 0 2.7.4-1.1.8-2.5 1-2.7 0-2.7-.4zm2.4.1c.9-.1 1.5-.3 1.4-.5a2.84 2.84 0 0 0-1.6-.1 3.55 3.55 0 0 0-1.6.4c.1.2.9.2 1.8.2zm-17.6-9.2c-1.2 1.3-.4 3.2-.7 4.8-.5 1.3-1.9 2.2-2.3 3.5a3.09 3.09 0 0 0 .4 2.5.35.35 0 0 0-.1-.2 4.41 4.41 0 0 1 1.7-4.1c2.1-2.4-.4-4.4 1.7-6.2zm5 15.2a11.71 11.71 0 0 0 2.6-.4 26.72 26.72 0 0 0 2.6-.9 16.59 16.59 0 0 1 4.9-1.1h.2a7.77 7.77 0 0 1 1.6.2 2.18 2.18 0 0 1 .8.5c1.3 1.1 1.3 1.7 2.9 2.7.7.3 1.4 1 1.9 1.2a5.8 5.8 0 0 1-1-.9A35.84 35.84 0 0 0 76 45a7.32 7.32 0 0 0-2.5-.8 10.2 10.2 0 0 0-5.2.8 23.39 23.39 0 0 1-3.8.9 2 2 0 0 1-1.5.1c-.2-1.7-.8-1.4-.6-3.4a8.91 8.91 0 0 0-.4-6.3 2.46 2.46 0 0 0-.3-2.2c-.5-.5-1.7-.6-2 .3.1.7 1 .3 1.4.6.5.1.5.7.4 1.1-.1 1-1.2 1.5-2 1.7.3.6 1.4.2 1.8-.1a6.56 6.56 0 0 1 .8 2.1c.1 1.9-.5 1.9-1.2 3.1a3.77 3.77 0 0 0 .2 2.9c-.1-2 .1-2.2.7-3.1a7.57 7.57 0 0 0-.2 1.6c0 .9.5 1.2.6 2.1a3.29 3.29 0 0 1-.7 1.6c-.9 1.2-2.5 1-3.1 4 1.2-1.7 1.4-2.2 2.5-2.8 1.4-.8 1.7-1.2 2-2.1z"/><path class="cls-1" d="M51.9 37.2c.5.4.6.8 1.1 1.3-.2-.1-1.5-1-2.2-.7-1 .1-2.3 1-3.1.1-.6-.2-1-1.2-1.1-1.8a2.76 2.76 0 0 0 2.7 1.6 8.75 8.75 0 0 1 1.6-.2 1.37 1.37 0 0 1 1.1.4 2.18 2.18 0 0 0-1.6-.7c-1.4 0-2.9.7-3.8-1 .8.6 2.5.7 4 .7a1.21 1.21 0 0 1 1.3.3zm-2.1-2.4c-.1.2-.4.5-.2.8l.4-.5c-.1-.1-.2-.2-.2-.3zm.9.6c.1.2.2.3.3.5.2 0 .2-.3.4-.3zm.2 1.1a1.11 1.11 0 0 0-.7-.9c-.4-.2-.8.9-1 0-.2-.5.4-.9-.1-1.3-.5-.7.2-.9 0-1.6 0-.6-.1-1.3.6-1.3a6 6 0 0 1 3.5.1 2.2 2.2 0 0 0 .5-.6 1.59 1.59 0 0 1 .9.1 3.22 3.22 0 0 1 .7.4c-.3 0-.9.1-.9.6.2.5.7-.2 2.1.7a1.08 1.08 0 0 1 .4.5 12.44 12.44 0 0 0-1.6-.4 1.73 1.73 0 0 0-1-.1c-.2 0-.9.5-.8.2a1.75 1.75 0 0 0-.1-.5c-.1-.3-.3-.3-.6-.4a5.79 5.79 0 0 0-2.9-.1c-.3.1-.4.5-.3.9.3.5.4.5.7.4s.4-.5.8-.5.6 0 .7.3v.2c-.1-.2-.4-.1-.6-.1a.31.31 0 0 0-.1.2c.1.2.2.1.4.1-.1.3-.8.3-1.3.3-.2 0-.2.2-.3.3s-.1.4 0 .6c.7.8 1.8.9 2.7 1.5a1.79 1.79 0 0 1 .5.7c-.4-.2-.5.5-.5.6l.2-.1c.1 0 .5-.2.5-.3a1.34 1.34 0 0 1 .2.9c.1-.3 0-.5.2-.8a5.85 5.85 0 0 1-.6 5.3c-.8 1.6-.7 2-.6 4.2-1.1-2.3-.3-3.4 0-4.8a.4.4 0 0 0-.2-.4 2 2 0 0 1-.5 1.6 2.79 2.79 0 0 0-.4 3 4.34 4.34 0 0 1 .5 2.5 5.9 5.9 0 0 0-.1 3 4.22 4.22 0 0 1-.5-3.1 3.34 3.34 0 0 0-.6-2.2l.3.2c-.3 1.9-2.8 2-1.9 4.6a9 9 0 0 1 1.1 2.2c-.5-.9-1.2-1-1.7-2-1.2-.2-2.2.7-3.4 1a2.12 2.12 0 0 1-2.5-.5c2.2.8 3.7-.6 5-1.2.8-.3.5-.9.6-1.4.3-1.5 1.6-1.4 2.1-2.8 0-1.2-.2-1.9.2-2.7s.9-.6 1-1.6c.3-1.2-1.4-1.3-1-2.7.2.3.6.4.9.6a10.38 10.38 0 0 1 1.7 1.2 3.38 3.38 0 0 0-.7-1.1l-.6-.4a1 1 0 0 1 .6-.5c-.1.7.8 1 1.1 1.4a4.94 4.94 0 0 0-.3-2.7.78.78 0 0 0-.5.2 1.69 1.69 0 0 1 0-1.4c0-.2-.2-.1-.3-.1a1.24 1.24 0 0 0-.3.2l-.3-.6a.63.63 0 0 0-.9.4m9.9-1c.1.3-.1.6-.2.9s-.3.2-.4.3c0-.2.5-.5.2-.9l-.6-.4c.3-.3.9-.3 1 .1z"/><path class="cls-1" d="M51.5 39.2a.6.6 0 0 1-.4-.1c-.5-.2.1-.5.1-.7.2.1.2.5.3.8zm2.2 5.8a7.38 7.38 0 0 1-.3 2.4 5.89 5.89 0 0 1-.8 1.6 12.76 12.76 0 0 0 .7-2.8 12 12 0 0 1 .5-3.3l.3-1a11.42 11.42 0 0 0-.4 3.1zM40.8 56c.3-.3.4-.2.6-.3.2.2.1.4.4.5s1-.2 1.3-.4a3.53 3.53 0 0 0 1.2.5c.4 0 .6-.4 1-.4s.6.5.6.5a22.55 22.55 0 0 0 2.6-.4c2.1-.3 1.6 1 1.6 1s.8.2 1.7-.8a6.81 6.81 0 0 0 1.5-2.6 41.38 41.38 0 0 0 .2-4.5 14.36 14.36 0 0 0-.7 2.5 6.51 6.51 0 0 1-1 3.2c-.1.3-.8.6-.8.6s-.2-.5-.5-.7a1.3 1.3 0 0 0-.7-.3s-1.6 1.1-2.2 1 0-1 0-1a22.47 22.47 0 0 1-2.6.9c-.9.3-1.1-.2-1.1-.2-.5.2-1.4.6-1.9.4s-.7-.6-1-.3l-.5.6c-.5-1.2.8-1.6 1.2-2l-.9-.1a.6.6 0 0 1-.4-.8c-.5 0-.9.3-1.3.3.1-1 1.2-.5 1.7-1.2.1-.2.4-.3.8-.1 0 0-1.1-.7-1-1 .3-1 2 .5 2.4.7-.1-.2-.3-.3-.4-.5a1.72 1.72 0 0 0-3.2 0c.1.2.7-.3.7.1.1.2.3.4.3.5-.4.2-.8.2-1.1.4-1.1.4-1.1 1.9-1.1 1.9a8.53 8.53 0 0 0 1.5-.4.31.31 0 0 0 .2-.1c.2.6.7.2.1 1.3-.3.6.3 1.7.3 1.7a1 1 0 0 0 .5-.5zm15-8.3a9.4 9.4 0 0 0-1.4 3.9c-.3-1.5 0-2.7 1.2-4.7 1.7-2.5.8-4.9.9-5.6 1.3 4.6-.3 5.6-.7 6.4z"/><path class="cls-1" d="M50.4 50.3a6.38 6.38 0 0 0 .6 1.5 4 4 0 0 1 .2 2.7 5.93 5.93 0 0 0-.9-2.9 3.43 3.43 0 0 1-.4-2.3 2.07 2.07 0 0 1 .6-1 2.74 2.74 0 0 0-.1 2zm4.6 2.8a6.88 6.88 0 0 1-1.4 1.7c.3-2.4 1.8-2.7 2.4-5.7a7.21 7.21 0 0 1-1 4zm10 3.4l.9.3a12.08 12.08 0 0 0-1.4-.3H64a8.73 8.73 0 0 0-3.2-.1c-1.4.6-2.9 1.7-3.2 2.5-.7 1.5-2.6.3-3.8 1.7-.3-.3.1-.9.8-1.3.5-.3 1.8.1 2.3-.5.3-.3-.4-1-1.2-.7-1.1.4-1.1 1-1.7 1.3a2.11 2.11 0 0 1 1.8-1.9c.6-.1 1.1.2 1.7.1.7-.4 1-.6 1.9-1.1a4.8 4.8 0 0 1 1.7-.5 23 23 0 0 1 3.9.5zM52 39.4a1.58 1.58 0 0 1-.4-.1 6.66 6.66 0 0 1-.7-.3c-.2 0-.2-.1-.2-.1a.35.35 0 0 1 .2-.1 2.94 2.94 0 0 1 .9.3 5.2 5.2 0 0 0 .5.3zm9.3-6.3a1.58 1.58 0 0 0 .1.4 4.2 4.2 0 0 0 .2.5s-1.3 0-1.2-.1.2-.3.1-.5a1.44 1.44 0 0 1-.2-.3zm-7.6 3.7c-.1-.4-.3-.7-1.1-1.1a7.63 7.63 0 0 0-1.9-.7c-.3-.1-.8-.3-.7-.2s1.7 1 2.1 1.1a3.13 3.13 0 0 1 1 .5 1 1 0 0 1 .3.4c.1.2 0 .5.1.8s.3.3.3.3a2.35 2.35 0 0 0-.1-1.1zm-2.3-3.1a2 2 0 0 1 1.1.2c.4.1.5.7.8 1 0 0-.9-1-1.6-.9-.2-.1-.5-.3-.3-.3zm-.4.5a.82.82 0 0 1 .7.1 1.7 1.7 0 0 1 .6.6l-.3-.1-.3-.2a1 1 0 0 0-.6-.2c-.1-.1-.3-.2-.1-.2zm8-1.1a1.91 1.91 0 0 0-.6 1.4 16 16 0 0 0 .3 3 3.45 3.45 0 0 1-.4 2.5 4.75 4.75 0 0 0-.6 2.2 3.81 3.81 0 0 0 .8 2 5 5 0 0 1-.4-2.5c.2-1.2.9-1.9 1-2.7a6.43 6.43 0 0 0-.3-2.7 4.19 4.19 0 0 1 .2-3.2z"/><path class="cls-1" d="M57.9 47.9a5.64 5.64 0 0 0 .7-2 14.73 14.73 0 0 0-.8-2.8 2.74 2.74 0 0 1 0-1.8 2.18 2.18 0 0 1 .8-1.1 3.87 3.87 0 0 0-.2 3.5c.4 1.1.8 2.2.5 3a5.65 5.65 0 0 1-.9 1.6c-.3.3-.5.4-.1-.4z"/><path class="cls-1" d="M56.1 55a2.19 2.19 0 0 1-.5.3 1 1 0 0 1-.4.1s.2-.3.8-1.1c.9-1.4.9-2.8 1.2-4.2a14.48 14.48 0 0 1 1.4-2.8 6.23 6.23 0 0 0 .1-2.3c-.1 3-1.6 2.9-2 5.2a7.54 7.54 0 0 1-1.6 4 9.78 9.78 0 0 1-3.7 2.9c1.7.3 2.8-.1 4.3-.2a8.64 8.64 0 0 1 1.5.1c.3.1.4-.2 1.3-.7a12.2 12.2 0 0 1 1.7-.7 5.12 5.12 0 0 1 2-.3c-.1-.1 2.4-.1 2-.3-.1-.6-1-.1-.8-.4-.9.4-1.1.1-2.1.3 0 0-.9.1-1.5.1a1.43 1.43 0 0 1-.7-.2.77.77 0 0 1-.5-.8v-.9a10.42 10.42 0 0 0-.1-1.1 8.91 8.91 0 0 1-2.4 3zM76 48.6a6.28 6.28 0 0 0-2.6-1.8 10 10 0 0 0-5.5.9c-1.6.8-2.2 1.9-3 3.4a4.06 4.06 0 0 0-.6 1.1c-.3.8-.3 1.1.2 1.3.2.1 1.3-.4 1.3-.4-.3-.4-1.2-.2-1.2-.2a2.42 2.42 0 0 1 .9-.8 2.35 2.35 0 0 1 1.1-.1l-.5-.4a4.49 4.49 0 0 1 .5-1.5 3.71 3.71 0 0 1 3-2.6c2-.5 3-.6 4.2-.1a17.89 17.89 0 0 1 2.2 1.2zm-1.3 7.8a7.64 7.64 0 0 0-1.4-.7c-.7-.3-1.6-.6-1.6-.6s2.2-.4 3.4-.7a10.31 10.31 0 0 0 1.6-.5 1.56 1.56 0 0 0 .7-.5s.3-.1.7-1.2c.3-.8-.1-2.3.1-2.6.4-.5 2.7.1 3.8 1.7.8 1.2.1 3.1.1 3.1s.7-.3.8-2c.1-2.1-2.3-3.2-2.3-3.2a3.91 3.91 0 0 1 2.3 1.8c.9 1.5.3 3.3-.9 5s-4.1 1.6-5.2 1.3a2.75 2.75 0 0 1 .7 1.2 1.72 1.72 0 0 1-.5 2 23.59 23.59 0 0 1-3.1.4 14.93 14.93 0 0 0-1.9.1 14.89 14.89 0 0 1-2.4-.1c-.2 0-.4.1-1.1.2-1 .2-.9 0-.9 0s.2-.5-1.1-.3a13.58 13.58 0 0 1-1.5.1 3.5 3.5 0 0 1-2 .2c-1.2-.2-1.3-1-1.3-1a5.28 5.28 0 0 0 1.9.4 2 2 0 0 0 1.5-.6s.3.4 1.2.1a4.77 4.77 0 0 0 .8-.4l2.1.1c.7.1 2.1.2 2.1.2s.2 0 1.4.1c.8.1 1.5.1 1.5-.1s-.6-.5-.6-.5 1.2.1 1.7.2a2.51 2.51 0 0 0 1-.2.89.89 0 0 0 0-1.1c-.3-.3-.2-.3-.6-.5-1-.5-.9-.7-.9-.7s-.3-.4.4-.1c.3.2-.1-.4-.1-.4a1.09 1.09 0 0 0-.4-.2zm4.5-5.7a7.57 7.57 0 0 1-.5 3.2 12.22 12.22 0 0 1-2.2 2.3c1.7.6 4.7-.2 5.2-1.9a3 3 0 0 0-1-3.4 1.4 1.4 0 0 0-1.5-.2z"/><path class="cls-1" d="M70.1 54.6a4.2 4.2 0 0 0 .5.2l1.5.5s.5.1.7-.2c.4-.4-1 0-1-.4 0-.1-.3-.3-.3-.3a3.78 3.78 0 0 0-.8-.1c-.5 0-.6.3-.6.3zm-10.3.5a8.57 8.57 0 0 0 2.4-.4 7.44 7.44 0 0 0 1.9-.8 6.82 6.82 0 0 1 1.2-.1.69.69 0 0 0-.3.4.77.77 0 0 0 .1.6 1.31 1.31 0 0 1 .8-.1.69.69 0 0 1 .4.3s-.3.5.1.7a7.57 7.57 0 0 1 1.9.5 11.22 11.22 0 0 0 2.2.5c.7.2 1.5.4 1.5.4s.1.1-.2.2.7.4.7.4.1.1-.6 0a7.84 7.84 0 0 1-1.4-.2 10.21 10.21 0 0 0-1.4-.2 4.54 4.54 0 0 0-1-.1c-.3 0-1.3-.1-2.4-.2a10.87 10.87 0 0 1-2.5-.5 2.53 2.53 0 0 0-1.3 0 .74.74 0 0 0-.8-.1 1.84 1.84 0 0 0-.8.8 1.27 1.27 0 0 1 .6-.2 1.21 1.21 0 0 1 .5.1.35.35 0 0 1-.1.5 7.76 7.76 0 0 1-.7.4s0-.1-1.1-.1-1.2-.2-1.6.4-.2-.9-.2-.9a5.35 5.35 0 0 1 1.8-1.1 6.85 6.85 0 0 1 3.3-.6 7.14 7.14 0 0 1 2 .2 16.56 16.56 0 0 1 1.6.5 4.64 4.64 0 0 0-1.6-.9 11.33 11.33 0 0 0-4.5 0c-1.2.3-1.6 0-1.5-.2.1 0 1-.2 1-.2z"/><path class="cls-1" d="M60.4 57.3a1.74 1.74 0 0 1 .9-.1c.1.1.2.1.3.2l.3.3s-1.3.1-1 .7a1 1 0 0 0 1 .5 1.1 1.1 0 0 0-.5.5.55.55 0 0 0 .3.6l1 .4-.6.2s-.4-.2-.5.1a1.75 1.75 0 0 0-.1.5 2 2 0 0 1-.5-1 1.14 1.14 0 0 1 .4-1 .42.42 0 0 0-.6 0 .93.93 0 0 0-.3.6 2 2 0 0 1-.5-1 1.14 1.14 0 0 1 .4-1zm-9.3-13.8a16.51 16.51 0 0 1-1.3 4 2.23 2.23 0 0 0-.6-.7c-.4-.3-1.2.2-1.2.2a5.53 5.53 0 0 0-2.2-1.5c-1.2-.5-1.1.6-1.1.6s-1-1.1-1.4-1.6-1.1-.3-1.6-.2a9.23 9.23 0 0 1-1.9-.1s-1.1-.1-1.1-1.1c0-.7.8-1 .8-1a1.26 1.26 0 0 1-.6-1.2.79.79 0 0 1 .9-.7s-.6-.5-.6-.9.7-1 1.1-1.1 2.1.8 2.8 1 .4 1.1 1.6 1.5a7.17 7.17 0 0 0 2.5.4c1.1 0 1.5.4 2.8.7s1.4-.2 1.4-.2-.2 1.1-.3 1.9zm-10.2-5a.94.94 0 0 0-1.1.2c-.1.2-.1.7.2.8.9.1.7-.6 1.6-.5a1.53 1.53 0 0 1-.7-.5zm-.9 3.7c-.3.1-.8.5-.7 1 .2.4.3.6.8.6.3-.1.5-.1.5-.3a.14.14 0 0 1 0-.2c.3-.3.6-.2.9-.2a1.89 1.89 0 0 0-.8-.5c-.5-.5-.2-.7.1-.9a1.8 1.8 0 0 1 1 .1l-.9-1.1c-.4-.3-1.1-.4-1.3.2 0 .2-.1.6.1.7.1.3.3.4.3.6zm10.1 3a2.66 2.66 0 0 1 .1-1.5 3.64 3.64 0 0 1 .9-1.2c-.6.4-.9 0-2.5-.5a11.42 11.42 0 0 0-3.1-.4 7.61 7.61 0 0 1-2.4-1.1c-.2-.2-.2-.4-.3-.8a.75.75 0 0 0-.9-.4.69.69 0 0 0-.4.3 1.75 1.75 0 0 0-.5.1 1.1 1.1 0 0 0-.5.5 2 2 0 0 1 .5-.1.77.77 0 0 1 .5.2c0 .7-.1.7.2 1.2a12 12 0 0 0 1.2 1.4c.8.5 1.9 1 2 1.1a8.51 8.51 0 0 0 1.3.6 3.46 3.46 0 0 1 1.2.9s0-.7 1-.4a16 16 0 0 0 1.7.1zm10.1-7.6a5.1 5.1 0 0 1 0 1.8c-.4 1.1-1 1.3-1.2 2.3a7.33 7.33 0 0 0 .4 3.2 3.88 3.88 0 0 1 .2 2.1c-.2.6-.7 1.2-1 1.9a10.71 10.71 0 0 0-.5 1.6s.5-1.1.8-1.6a8.17 8.17 0 0 0 1.2-2c.5-1.5-.3-2.5-.4-3.4a3.12 3.12 0 0 1 .7-2.7 3.4 3.4 0 0 0 .8-1.9 13.58 13.58 0 0 0 .1-1.5zM35.3 69s24.4-.6 30.6-1.2c1.7-.2 4.6-.2 6.5-.4s4.6-.3 4.6-.3a9.22 9.22 0 0 1-2.9.6c-2.4.2-6.8.7-8.8.7-2.5 0-10.8.6-13.3.7a110 110 0 0 1-16.7-.1z"/><path class="cls-1" d="M49.5 9.4l-6.2 27.9s0 .4.2.4.3.1.5.2a1.87 1.87 0 0 1 .4.3 3 3 0 0 1-1-.2 1 1 0 0 1-.6-.5l6.3-28.1.7-4.3c.1-.6-.1-.5-.3-.2a18.9 18.9 0 0 0-1.4 3.9S42 34.4 41.9 35.1s0 1-.4 1.6a1.1 1.1 0 0 1-1.1.7c-.3 0-.7 0-.8.2s.2.3.5.3a5.28 5.28 0 0 0 1.2-.1 3.22 3.22 0 0 0 .6-.2l.2.4a1.79 1.79 0 0 0 .7.5 2.17 2.17 0 0 0 1.2.2c.4 0 .5.2.5.4s.4.3.8.1.3-.6 0-.9-.8 0-.8-.1.3-.6.9-.3a1 1 0 0 1 .6 1.3c-.2.7-1 .7-1.4.6s-.6-.4-.8-.4a2.27 2.27 0 0 1-.4-.1s-2.7-1.1-2.9-1.1-.8.1-1 .1-.3.3-.9.2c-.3 0-1.2-.4-.9-1.2a1.07 1.07 0 0 1 1.3-.8c.3.1.4.4.6.4.4.1.7 0 .8-.4L47.1 10c.9-3.1 1.6-5 2.3-5.8s.9-1.5.8.3a26.31 26.31 0 0 1-.7 4.9zM38.8 37.9c.2 0 .4-.1.4-.3s-.2-.3-.4-.3-.4.1-.4.3a.45.45 0 0 0 .4.3zm14 14.4a18.38 18.38 0 0 1 .9-4.4c.3-1 1-2.1 1.2-3.1a30.14 30.14 0 0 0-.1-3.2 10.3 10.3 0 0 0 .1-1.3h.4a11.62 11.62 0 0 0-.1 2.2 7.38 7.38 0 0 1 .1 2.6c-.4 1.3-1.1 2.2-1.4 3.3a20.26 20.26 0 0 0-.6 4.3z"/><path class="cls-1" d="M37.5 37.7a.4.4 0 1 0-.4-.4.43.43 0 0 0 .4.4zm3 9a.5.5 0 1 0-.5-.5c-.1.3.2.5.5.5z"/><path class="cls-1" d="M39.9 44c-.2.3-.5.6-.4 1a1.28 1.28 0 0 0 1.1 1 1.17 1.17 0 0 0 1.4-.8 1.24 1.24 0 0 0-.2-1c-.2-.2-.9.1-.9.1a.91.91 0 0 1 .4.8c0 .3-.3.4-.6.4a.44.44 0 0 1-.4-.6 1 1 0 0 1 .5-.6.49.49 0 0 1 .1-.3c.1-.1-1 0-1 0zm6.5-4.2a.65.65 0 0 0 .6-.6.58.58 0 0 0-.6-.6.65.65 0 0 0-.6.6.58.58 0 0 0 .6.6zm-2.7 16.7s.7 1.4 1.3 2.3 1.1 1.5 1.5 2.2a43.26 43.26 0 0 0 2.6 3.9c1 1.3 2.7 3.2 2.7 3.2s-2.3-3.6-3-4.5-1.3-2-2-2.9-2.7-3.8-3.1-4.2zm5.7-.1s2.7 3.2 4 4.8 2 2.8 2.7 3.6 2.5 3 2.5 3a12.54 12.54 0 0 0-2.1-3.3c-1-1.1-1.9-2.5-2.8-3.5s-2.2-2.8-2.7-3.2-1.3-1.4-1.6-1.4zM58 59s3.3 4.1 3.9 4.7 2.4 3.1 2.4 3.1 1.9 1.9.7.1l-2.7-3.5c-.7-.9-1.6-1.9-2.3-2.7-.9-.9-1.9-1.5-2-1.7zm8.1 1.9a5.6 5.6 0 0 0 1.1 1.5 19 19 0 0 1 2 2.2c.4.4 2.5 2.3 2.5 2.3a22.1 22.1 0 0 0-1.5-1.8c-.6-.6-1.3-1.3-1.7-1.8a18.1 18.1 0 0 0-2.4-2.4zm6-.2s1.7 1.8 2.5 2.7a36.34 36.34 0 0 0 2.7 2.5 5.77 5.77 0 0 0-1-1.5 25 25 0 0 1-2.2-2.4c-.5-.6-1.2-1.3-1.2-1.3z"/><path class="cls-1" d="M45.2 64.9s2.6-.3 3.8-.3 5.3-.1 6.8-.1 7.6-.5 9.8-.5 5.6-.5 6.4-.5 8-.2 8-.2a21.29 21.29 0 0 1-3.3.5c-.5 0-5.1.4-5.8.4h-2.8a21.17 21.17 0 0 1-3 .1 17 17 0 0 0-3 .2s-1 0-2.2.1-3.5 0-3.7.1a34.24 34.24 0 0 1-3.5.3 18 18 0 0 1-3-.1 18.75 18.75 0 0 0-2.1.1c-.8 0-2.4-.1-2.4-.1zm15-4.6h-4c-.7 0-3.1.2-3.1.2s-2.1-.1-3.2-.1-5.9.3-5.9.3a48.4 48.4 0 0 0 6 .1h3.7c.5 0 2.5 0 3.1-.1 3.4-.2 3.4-.4 3.4-.4zm-7.9-3.1s-3.3 0-4.7.1-4 .1-4 .1a14 14 0 0 1 2.1-.3c1.3-.1 2.4 0 3.2-.1 1.3 0 3.4.2 3.4.2zM30.8 45.7h-.3a.1.1 0 0 0-.1.1c-.1.2-.2.4 0 .6s.5.2.4.5v-.1c0 .1-.1.1-.1.2v.3c.1.3.5.4.7.6-.1.2-.2.3-.2.5v.2a1 1 0 0 0 .5.4c.1 0 0 .1 0 .2a.57.57 0 0 0 .2.7c.1.1.3.2.4.3s-.1.5-.1.7a.67.67 0 0 0 .7.6.1.1 0 0 1 .1.1 1.42 1.42 0 0 0-.2.6c0 .4.4.5.6.6 0 .1.1.2-.1.3a.74.74 0 0 0 .7.9.35.35 0 0 0 .2.1h.1V54a1 1 0 0 1-.4-.7.76.76 0 0 0-.4-1.1v-.1a1.18 1.18 0 0 0 .1-.8.6.6 0 0 0-.6-.3v-.1c0-.2.1-.5.1-.7s-.4-.5-.6-.7h-.1a.78.78 0 0 0-.4-1.2h-.1c.1-.3.2-.6-.1-.9-.2-.1-.4-.1-.5-.3h-.1l.1-.1v-.2c0-.3-.3-.5-.6-.6-.1 0-.1-.2-.1-.2h.1c0-.2.1-.2.1-.3zm2.8-.5c-.1 0 0 0-.1.1h-.1a.1.1 0 0 0-.1.1c-.1.2-.2.4 0 .6s.4.1.4.4v-.1c0 .1-.1.1-.1.2v.3c.1.3.5.4.7.6-.1.2-.2.3-.2.5v.2a1 1 0 0 0 .5.4c.1 0 0 .1 0 .2a.57.57 0 0 0 .2.7c.1.1.3.2.4.3s-.1.5-.1.7a.67.67 0 0 0 .7.6.1.1 0 0 1 .1.1 1.42 1.42 0 0 0-.2.6c0 .4.4.5.6.6 0 .1.1.2-.1.3a.74.74 0 0 0 .7.9.35.35 0 0 0 .2.1h.1v-.1a1 1 0 0 1-.4-.7.76.76 0 0 0-.4-1.1v-.1a1.18 1.18 0 0 0 .1-.8.6.6 0 0 0-.6-.3v-.1c0-.2.1-.5.1-.7s-.4-.5-.6-.7h-.1a.78.78 0 0 0-.4-1.2l-.1-.1c.1-.3.2-.6-.1-.9-.2-.1-.4-.1-.5-.3l-.2.1.1-.1v-.2a.47.47 0 0 0-.5-.5c-.1 0-.1-.2-.1-.2h.1c-.1-.1 0-.1.1-.1 0-.2.1-.2-.1-.3zm2.5-.3a.73.73 0 0 0 .3 1.1c.2.2 0 .3-.1.5v.1a.82.82 0 0 0 .5.5h.1l-.1-.1c.1.1.3.2.2.4a.84.84 0 0 0 .4 1.1l-.1-.1.1.1a.1.1 0 0 1 .1.1.37.37 0 0 1-.1.3c-.2.4.2.8.5 1 .1 0 .1.1.1.2-.1.4-.2.8.1 1a2.65 2.65 0 0 1 .5.6.1.1 0 0 0 .2 0c.1-.2.1-.6-.1-.7a1.38 1.38 0 0 0-.4-.3l-.1-.2a.94.94 0 0 0-.1-.9c-.1-.1-.3-.2-.4-.4s.1-.5 0-.8c0-.1 0-.1-.1-.2l-.1-.1-.1-.1a.78.78 0 0 1-.4-.4c-.1-.3.2-.5 0-.8v-.1l-.1-.1c-.1-.1-.2 0-.2-.1l-.1-.1c-.1 0-.1 0-.1-.1.1-.4.1-.6-.3-.8-.2-.1-.1-.3-.1-.5s0-.1-.1-.2c.2 0 .2 0 .1.1zm-7.8 1.3a.73.73 0 0 0 .3 1.1c.2.2 0 .4-.1.6v.1a.82.82 0 0 0 .5.5h.1l-.1-.1c.1.1.3.2.2.4a.84.84 0 0 0 .4 1.1l-.1-.1.1.1a.1.1 0 0 1 .1.1.37.37 0 0 1-.1.3c-.2.4.2.8.5 1 .1 0 .1.1.1.2-.1.4-.2.8.1 1a2.65 2.65 0 0 1 .5.6.1.1 0 1 0 .2 0c.1-.2.1-.6-.1-.7a1.38 1.38 0 0 0-.4-.3l-.1-.2a.94.94 0 0 0-.1-.9c-.1-.1-.3-.2-.4-.4s.1-.5 0-.8c0-.1 0-.1-.1-.2l-.1-.1-.1-.1a.78.78 0 0 1-.4-.4c-.1-.3.2-.5 0-.8v-.1l-.1-.1c-.1-.1-.2 0-.2-.1v-.1c-.1 0-.1 0-.1-.1a.91.91 0 0 0-.3-1c-.2-.1-.1-.3-.1-.5s0-.1-.1-.2c.1.1 0 .1 0 .2z"/><path class="cls-1" d="M30.9 53a.45.45 0 0 0 .3.6.37.37 0 0 1 .1.3.1.1 0 0 0-.1-.1v.5c.1.3.4.4.6.6a.21.21 0 1 0 .3-.3c-.1-.1-.3-.2-.4-.3l-.1-.1a.63.63 0 0 0-.4-.9.14.14 0 0 1-.2 0 .37.37 0 0 0-.1-.3zm1.9 3.6l-.1-.1-.1.1c-.3.3 0 .7.1 1.1l-.2.2a.62.62 0 0 0-.1.8c.2.1.4.3.3.5s-.4.4-.4.7a.85.85 0 0 0 .3.5c.2.3-.2.5-.3.8a.45.45 0 0 0 .3.6c.1.3-.3.5-.3.8v.2a.35.35 0 0 0 .1.2c.1.1.3.2.3.3a.63.63 0 0 1-.5.6.22.22 0 1 0 .2.4 1.07 1.07 0 0 0 .7-.9.85.85 0 0 0-.3-.6v-.1c.1-.3.3-.5.3-.8a1.49 1.49 0 0 0-.3-.7 1.61 1.61 0 0 0 .3-.9c0-.3-.3-.4-.3-.7s.2-.3.3-.5a1.64 1.64 0 0 0-.2-1 .66.66 0 0 0 .1-.6c-.1-.3-.4-.4-.3-.8v-.1h-.1c.2.1.2.1.2 0s-.1-.1-.1 0zm2.8-.2a.37.37 0 0 0-.3.1.92.92 0 0 0 .1 1.2v.2a1.09 1.09 0 0 0-.2 1.1c.1.2.2.3.3.5v.2c-.4.4-.5 1 0 1.3a.44.44 0 0 1-.1.5l-.1.1a.1.1 0 0 1-.1.1v.1c-.1.3.1.6.3.9v.2a1 1 0 0 0-.4 1c0 .1.1.2.3.2s.2-.1.2-.3v-.2c.1-.3.4-.4.5-.7s-.1-.5-.3-.8v-.3l-.1.1v-.1c.3-.2.3-.6.3-.9s-.3-.3-.3-.5.1-.6.2-.9v-.2a2.54 2.54 0 0 1-.2-.7c0-.2.2-.4.3-.7s-.2-.6-.4-.9-.1-.4 0-.6zm2.5-.4a.37.37 0 0 0-.3.1c-.4.5 0 1.1.2 1.5a.37.37 0 0 0-.1.3 1.06 1.06 0 0 0 .1 1.4c0 .1.1.1.1.2-.1.3-.3.5-.3.8a1.42 1.42 0 0 0 .2.6c.1.1.2.3.1.4-.5.4-.1 1.1.1 1.5a.91.91 0 0 1-.3.7c-.1.1-.1.1 0 .2s.1.1.2 0a.76.76 0 0 0 .4-.2.94.94 0 0 0-.1-1.3c-.3-.3 0-.6 0-.9a1.14 1.14 0 0 0-.3-.8.3.3 0 0 1 0-.4c.1-.3.4-.6.3-.9a.1.1 0 0 0-.1-.1c0-.2-.2-.4-.1-.6a.1.1 0 0 0-.1.1.84.84 0 0 0 .4-1.1c-.2-.5-.7-.9-.4-1.5zm2.9.8c-.3 0-.4.3-.4.5a1.42 1.42 0 0 0 .2.6c0 .1.1.1 0 .2a1.49 1.49 0 0 0-.3.7 1.05 1.05 0 0 0 .5.9h.1l-.1-.2c0 .3-.3.5-.4.8s.2.6.3.9v.1a.83.83 0 0 0-.3.8c0 .4.3.6.5.8a.87.87 0 0 1-.5.9v.1h.1c.2-.1.5-.2.6-.4a.76.76 0 0 0 .1-.9c-.1-.2-.3-.3-.4-.5v-.2c.1-.2.3-.4.3-.6s-.2-.4-.3-.7c0-.1-.1-.1 0-.2a1.37 1.37 0 0 0 .4-1.1.1.1 0 0 0-.1-.1c-.1-.1-.1-.3-.3-.3.2-.3.5-.6.4-.9a1.61 1.61 0 0 0-.4-.7v-.5z"/><path class="cls-1" d="M29.2 65.1s2-.1 3.2-.3 3.7 0 5.8-.1c2.3-.1 5.4-.4 5.4-.4a14.05 14.05 0 0 0 0-3.7 39.67 39.67 0 0 1-.1-4.6 23.55 23.55 0 0 1 .6 3.1c.1 1.2.2 2.7.3 3.5a8.87 8.87 0 0 0 .2 1.5 17.36 17.36 0 0 1 .1 1.8 6.14 6.14 0 0 1-2.3.4 21.54 21.54 0 0 0-4.4 0 12 12 0 0 1-3.4.2 8.28 8.28 0 0 0-3.2.2c-.2.2-.8-.6-.8-.6a21.78 21.78 0 0 1 3.5-.2c1.3.1 4.1-.2 4.9-.2s2.2.2 2.9.1c1.7-.2 1.9-.6 1.9-.6a26 26 0 0 0-3.1 0c-1.7.1-3.2.2-4.5.2s-3.4 0-4.2.1-2 .2-2 .2z"/><path class="cls-1" d="M35.6 66.4l.2 1.2a4.66 4.66 0 0 0 1.7 2.3l.8.2-.3-.5a5.52 5.52 0 0 1-1.5-1.9 4.52 4.52 0 0 1 0-1.2h-.9zm6.7-.3s.1.7.3 1.6a3.89 3.89 0 0 0 1.7 2 2.69 2.69 0 0 0 .7.6h.4l-.2-.5a8.35 8.35 0 0 1-1.8-1.9c-.6-1.4-.1-1.4-.3-1.8s-.8 0-.8 0zM24.8 45.6l.1.3s2.2-.5 3.5-.7 1.8-.2 4-.6 4.9-.7 4.9-.7l1.6 3.2c.5 1.1 1.8 3.5 1.8 3.5a9.28 9.28 0 0 0-.7-2.4c-.4-.6-1.2-2.3-1.5-2.9s-.9-2.3-.9-2.3-1.6.4-1.7.4a.1.1 0 0 1-.1-.1 7.77 7.77 0 0 0-.1-1.3 29.08 29.08 0 0 0-1.7-2.8l-.6-.4.2.9a9.16 9.16 0 0 1 1.2 2 7.74 7.74 0 0 1 .2 1.8l-6 1.1a11.88 11.88 0 0 0-1-2.4 9.38 9.38 0 0 0-1.4-1 1.87 1.87 0 0 0-.3-.4l-.3-.2s-.2.7 0 1c.4.6 1.1.5 1.4 1.1a5 5 0 0 1 .8 2.2l-3 .7z"/><path class="cls-1" d="M37.2 44.5l.2-.3a15.51 15.51 0 0 1-1.8.2 24.51 24.51 0 0 0-3.6.7c-1 .2-2.9.3-4 .5s-3.2.8-3.2.8a37.28 37.28 0 0 1 1.7 3.9c.4 1.3.6 3.4 1.2 4.6a3.2 3.2 0 0 0 2.1 1.6 8 8 0 0 1 2.8-.7c1.6-.1 3-.7 4.4-.8a9.32 9.32 0 0 0 2.6-.6A2 2 0 0 0 38 54c-.9.2-3.3.9-3.9 1l-2.6.4-1.5.3s-1.1-.2-1.8-1.9a29.16 29.16 0 0 0-1.4-3.8c-.6-1.3-1.5-3.5-1.5-3.5l2-.5c.8-.2.9 0 3.1-.5s4.2-.8 5.2-1a7.88 7.88 0 0 0 1.6 0z"/><path class="cls-1" d="M30.1 56.3a10.45 10.45 0 0 0-.1 2.2c.1 1.8.9 3 .6 4.2a9.6 9.6 0 0 1-.9 2.5l-.4-.2a8.25 8.25 0 0 0 .5-2.6c-.1-.9-.5-2.7-.5-3.7a10.83 10.83 0 0 1 .3-2.2zm29.6-28.8a1 1 0 0 0 .5-.8 1 1 0 0 0-2 0v.3a1.14 1.14 0 0 0-1 0 1 1 0 0 0-.8 1c0 .6.3 1.1.9 1.1a.85.85 0 0 1-.9.5.92.92 0 0 1-.7-1s-.7.5-1.2.2-.1-.7-.1-.7a1.06 1.06 0 0 0 1.1-1.4 1.31 1.31 0 0 0-1.6-.7s.1-.7-1-.9a1.16 1.16 0 0 0-1.1 1.5c.1.3.2.3.9 1.6s1 2 1 2v.6a15.56 15.56 0 0 1 3.5 1 29.71 29.71 0 0 1 4.1 1.8v-.3c0-.2.5-.7 1.1-1a28.19 28.19 0 0 1 3.1-1.7c.5-.3.3-1.3-.2-1.6-1-.5-1.4.1-1.4.1a1.23 1.23 0 0 0-1.7-.1.94.94 0 0 0 .2 1.6s0 .2-.6.4c-.6 0-.8-.9-.8-.9a1.54 1.54 0 0 1-1.4.3.81.81 0 0 1-.5-1c.2.3.4.3.8.3a1 1 0 0 0 1-1 1.33 1.33 0 0 0-.8-1.1m0 0c-.1 0-.2-.1-.3-.1m-6.3 1.3c-.2-.6-1.1-1.8-1.2-2.2a.63.63 0 0 1 .7-.7c.4.1.5.9.5.9a.85.85 0 0 1 1.1-.2c.4.2.3.6.1.9s-.9.1-.9.1-.5.8.6 1.6a.9.9 0 0 0 1.3 0 .88.88 0 0 0 .7.7c.3.1 1 .5 1.6-.7.1-.3.2-.7.1-.7h-.3a.5.5 0 0 1 0-1 .76.76 0 0 1 .4.2.44.44 0 0 0 .7 0c.2-.2 0-.6 0-.6v-.2a.51.51 0 0 1 1 0c0 .2-.1.4-.3.4a1.38 1.38 0 0 0-.3.4c-.1.5.6.5.6.5a.5.5 0 0 1 0 1c-.4 0-.6-.4-.8-.4 0 0-1.1 1.4.3 2a1.44 1.44 0 0 0 1.4 0 1.16 1.16 0 0 0 1 .6 1.88 1.88 0 0 0 1.5-1.1s-.7-.1-.8-.5a.55.55 0 0 1 .6-.7 1 1 0 0 1 .9.7 1 1 0 0 1 .6-.5c.4-.1.7.5.4.7s-1.7 1-2.3 1.4a12.61 12.61 0 0 0-1.3.9c-.2.2-.3.4-.4.4l-.4-.2-.8-.3a3.71 3.71 0 0 1-.9-.4 11.12 11.12 0 0 0-1.3-.5c-.9-.2-1.6-.4-1.6-.4s.1.1-.7-.2-.8-.2-.8-.2l-.5-.1v-.1a11.48 11.48 0 0 0-.5-1.5zm1.3 3.5a2.43 2.43 0 0 1 .9.7 2.8 2.8 0 0 1 .5.8 1.86 1.86 0 0 0-1.4 0c-.7.2-1 0-1-.3a.77.77 0 0 1 .2-.5s-.2.3.2.4a.93.93 0 0 0 .6 0s-.4-.1-.5-.3.1-.4.3-.4a1.2 1.2 0 0 0-.7 0c-.4.1-.4.4-.5.5s-.1 0-.1-.2c.3-.5.1-1.1 1.5-.7zm3.6-7.9a.6.6 0 0 0 0-1.2.6.6 0 0 0 0 1.2z"/><path class="cls-1" d="M53.9 24.7a1 1 0 1 1 1 1 1.08 1.08 0 0 1-1-1zm1 .4a.4.4 0 1 0-.4-.4.43.43 0 0 0 .4.4zM56 24a.86.86 0 0 1 .8-.8.79.79 0 0 1 .8.8.86.86 0 0 1-.8.8.79.79 0 0 1-.8-.8zm.8.3a.3.3 0 1 0-.3-.3.27.27 0 0 0 .3.3zm2.8-3.9a1.41 1.41 0 0 0-.3.5 2.64 2.64 0 0 0-.1.7s1.2-.2 1.2.1a.5.5 0 0 1-.1.5l.7.2s0-.5.1-.5 1 .7 1 .7.2 0 .4-.5a.72.72 0 0 0 0-.7s-1.1.2-1.1-.1.8-1.1.8-1.1a1.08 1.08 0 0 0-.6-.4c-.5-.1-.6 0-.6 0s0 1.3-.2 1.4a8.14 8.14 0 0 1-1.2-.8z"/><path class="cls-1" d="M54.3 26a7.36 7.36 0 0 1 2.2-1.2 12.21 12.21 0 0 1 2.7-.6c.5-.1.9-.2.9-.2s.4.7.1.8-.7-.1-1.5 0a8.45 8.45 0 0 0-2.4.8 2.47 2.47 0 0 0-1.2 1zm7.1-.8a.65.65 0 1 1 .9-.2c-.3.3-.6.4-.9.2z"/><path class="cls-1" d="M63.9 29.3a7.49 7.49 0 0 0-1.2-2.6 20.3 20.3 0 0 0-1.9-2 2.76 2.76 0 0 0-.6-.6s-.7.4-.5.6.6.3 1.3.8a10.63 10.63 0 0 1 1.6 1.9A3.69 3.69 0 0 1 63 29z"/><path class="cls-1" d="M63.6 28.3a.94.94 0 1 1 1.3-.3 1 1 0 0 1-1.3.3zm.5-.4a.4.4 0 1 0-.4-.4c-.1.2.1.4.4.4zm-4.8-4.6a1.1 1.1 0 1 1 1.1 1.1 1.27 1.27 0 0 1-1.1-1.1zm1 .5a.5.5 0 1 0-.5-.5.54.54 0 0 0 .5.5zm2.2 2.7a.81.81 0 1 1 1.1-.3.8.8 0 0 1-1.1.3zm.4-.4a.3.3 0 1 0-.3-.3.27.27 0 0 0 .3.3zm-5.1 5c.2 0 .3-.2.3-.4a.4.4 0 0 0-.8 0 .66.66 0 0 0 .5.4zM0 124.2c.5 0 1 .1 1.6.1s1.1-.1 1.6-.1v.3c-.7.1-.8.5-.8 1.5v4.3c0 2 .9 3.4 3 3.4a2.49 2.49 0 0 0 2.7-2.4v-1.8c0-1.8-.1-3.5-.1-4.3a.75.75 0 0 0-.7-.7v-.3c.5 0 1 .1 1.6.1s1.1-.1 1.6-.1v.3c-.5 0-.7.6-.7 1.1v7.4c0 .8.2 1.2.8 1.3v.3c-.4 0-.8-.1-1.2-.1s-.8.1-1.2.1c0-.5.1-.9.1-1.5a4.75 4.75 0 0 1-3.4 1.6c-2.1 0-3.8-1.2-3.8-3.5v-2.5c0-1.1-.1-2.2-.1-3.1 0-.6-.1-1-.7-1.1v-.3zm13.3 10.2q.9-.15.9-1.5V124h.6l7.1 8.1v-5.2c0-1.9-.4-2.3-1.1-2.4v-.3c.5 0 1 .1 1.4.1s1-.1 1.4-.1v.3c-.6.1-1 .6-1 1.9v8.4h-.5l-7.2-8.1.1 5.7c0 1.1.4 1.7 1.1 1.9v.3c-.5 0-1-.1-1.4-.1s-.9.1-1.4.1zm16.6-9.8c-.5.1-.6.5-.6 1 0 1.5-.1 3.2-.1 4.8v2.9c0 .5.2 1 .7 1v.3c-.5 0-1-.1-1.5-.1s-1 .1-1.5.1v-.3c.5 0 .7-.4.7-1v-2.2c0-1.8-.1-4.5-.1-5.4 0-.6-.1-1.1-.7-1.1v-.3c.5 0 1 .1 1.5.1s1-.1 1.5-.1v.3zm7.2 10.3l-4-9.1a2.34 2.34 0 0 0-1-1.2v-.3c.5 0 1.1.1 1.6.1s1.1-.1 1.6-.1v.3c-.3.1-.5.2-.5.5a1.67 1.67 0 0 0 .3.9l2.6 6.5 2.3-6.1a2 2 0 0 0 .2-1c0-.6-.2-.8-.8-.9v-.3c.5 0 1 .1 1.5.1s1-.1 1.5-.1v.3c-.6.1-.9.6-1.2 1.3l-3.4 8.9h-.7zm7.2-.5a.81.81 0 0 0 .8-.9V131c0-2.1-.1-4.2-.1-5.5 0-.4-.3-.6-.7-.7v-.3H50a3.09 3.09 0 0 0 1.1-.2c0 .4-.1.7-.1 1.1s.1.7.1 1.1h-.5a1.4 1.4 0 0 0-1.4-1.2h-2.5v3.9h2.2c.8 0 1.1-.1 1.5-.8h.5c0 .4-.1.8-.1 1.3s.1.9.1 1.3h-.5c-.3-1-.6-1.1-1.4-1.1h-2.2v4.2h2.5a2 2 0 0 0 2.1-1.1l.4.2-.5 1.9a3.18 3.18 0 0 0-1.4-.2h-5.5l-.1-.5zm10.5 0c.5-.1.7-.3.7-.8v-3.8c0-1.2-.1-2.6-.1-3.8 0-.7-.1-1-.8-1.2v-.3c.5 0 .9.1 1.4.1s.9-.1 2-.1c2.6 0 3.9 1.3 3.9 3a3 3 0 0 1-2.6 2.8l2.9 3.5a2.26 2.26 0 0 0 1.1.8v.3c-.5 0-1-.1-1.4-.1s-1 .1-1.4.1v-.3c.1 0 .1-.1.2-.2a.65.65 0 0 0-.2-.5l-2.4-2.9c-.2-.2-.5-.6-.9-.6v3c0 .6.1 1 .8 1.2v.3c-.5 0-1-.1-1.5-.1s-1 .1-1.5.1v-.4h-.2zm2.3-4.7h.6a2.39 2.39 0 0 0 2.5-2.4c0-1.3-.6-2.6-2.2-2.6-.4 0-.8 0-.8.4zm8.3 3h.6a2.37 2.37 0 0 0 2.4 1.6 1.9 1.9 0 0 0 1.9-1.9c0-3.1-4.9-1.2-4.9-5.3a3 3 0 0 1 3.3-3 5 5 0 0 1 2.6.7l.1 1.6h-.5a2.25 2.25 0 0 0-2.2-1.7 1.86 1.86 0 0 0-2 1.9c0 2.6 4.9 1.1 4.9 5a3.15 3.15 0 0 1-3.4 3.2 5.25 5.25 0 0 1-2.8-.6zm12.6-8.1c-.5.1-.6.5-.6 1 0 1.5-.1 3.2-.1 4.8v2.9c0 .5.2 1 .7 1v.3c-.5 0-1-.1-1.5-.1s-1 .1-1.5.1v-.3c.5 0 .7-.4.7-1v-2.2c0-1.8-.1-4.5-.1-5.4 0-.6-.1-1.1-.7-1.1v-.3c.5 0 1 .1 1.5.1s1-.1 1.5-.1l.1.3zm11.4 1.6h-.5c-.1-.9-.6-1.1-1.4-1.1h-1.8c0 1.2-.1 2.9-.1 4.8v3.2a1.39 1.39 0 0 0 .9 1.5v.3c-.6 0-1.1-.1-1.7-.1s-1.1.1-1.7.1v-.3c.7-.2.9-.5.9-1.5v-2.4c0-2.2-.1-4.3-.1-5.6h-2c-.8 0-1.3.3-1.4 1.1H80v-2.1a8.81 8.81 0 0 0 1.7.2h6.4a6.75 6.75 0 0 0 1.4-.2l-.1 2.1zm1.9 8.2a.81.81 0 0 0 .8-.9V131c0-2.1-.1-4.2-.1-5.5 0-.4-.3-.6-.7-.7v-.3H97a3.09 3.09 0 0 0 1.1-.2c0 .4-.1.7-.1 1.1s.1.7.1 1.1h-.5a1.4 1.4 0 0 0-1.4-1.2h-2.5v3.9h2.2c.8 0 1.1-.1 1.5-.8h.5c0 .4-.1.8-.1 1.3s.1.9.1 1.3h-.5c-.3-1-.6-1.1-1.4-1.1h-2.2v4.2h2.5a2 2 0 0 0 2.1-1.1l.4.2-.5 1.9a3.18 3.18 0 0 0-1.4-.2h-5.5l-.1-.5zm18.6-8.2h-.5c-.1-.9-.6-1.1-1.4-1.1h-1.8c0 1.2-.1 2.9-.1 4.8v3.2a1.39 1.39 0 0 0 .9 1.5v.3c-.6 0-1.1-.1-1.7-.1s-1.1.1-1.7.1v-.3c.7-.2.9-.5.9-1.5v-2.4c0-2.2-.1-4.3-.1-5.6h-2c-.8 0-1.3.3-1.4 1.1h-.5v-2.1a8.81 8.81 0 0 0 1.7.2h6.4a6.75 6.75 0 0 0 1.4-.2v2.1z"/></svg>