<svg xmlns="http://www.w3.org/2000/svg" data-name="Layer 1" viewBox="0 0 36 36"><path d="M22.92 8.61h-9.84a4.48 4.48 0 0 0-4.47 4.47v9.84a4.48 4.48 0 0 0 4.47 4.47h9.84a4.48 4.48 0 0 0 4.47-4.47v-9.84a4.48 4.48 0 0 0-4.47-4.47zM18 23.87A5.87 5.87 0 1 1 23.87 18 5.87 5.87 0 0 1 18 23.87zm6.12-10.65a1.34 1.34 0 1 1 1.33-1.34 1.34 1.34 0 0 1-1.33 1.34z" fill="#fff"/><circle cx="18" cy="18" r="3.83" fill="#fff"/><path d="M18 0a18 18 0 1 0 18 18A18 18 0 0 0 18 0zm11.43 22.92a6.52 6.52 0 0 1-6.51 6.51h-9.84a6.52 6.52 0 0 1-6.51-6.51v-9.84a6.52 6.52 0 0 1 6.51-6.51h9.84a6.52 6.52 0 0 1 6.51 6.51z" fill="#fff"/></svg>