<svg xmlns="http://www.w3.org/2000/svg" data-name="Layer 1" viewBox="0 0 36 36"><path fill="#fff" d="M18 0a18 18 0 1 0 18 18A18 18 0 0 0 18 0zm11.8 24.5c-.3.4-1 .8-3 1-.3.1-.3.8-.4 1.2s-.6.4-1 .3a4.5 4.5 0 0 0-4 1 5.2 5.2 0 0 1-3.4 1.2 4.8 4.8 0 0 1-3.3-1.3 4.5 4.5 0 0 0-4.2-.9c-.3 0-.9.3-1-.3s0-1.1-.4-1.2c-1.9-.3-2.6-.6-2.9-1-.1-.1-.2-.4 0-.5 3.4-.6 5-3.8 5.3-4.5.3-1-.3-1.5-1.5-1.8-.5-.2-1.5-.5-1.5-1.1 0-.3.3-.5.6-.6a1 1 0 0 1 .8 0c.8.3 1.4.4 1.8 0 0-1.6-.4-3.7.3-5.5a6.2 6.2 0 0 1 6-3.7 6.2 6.2 0 0 1 6 3.7c.7 1.8.2 3.9.2 5.6.4.3 1 .2 1.8-.1a1 1 0 0 1 .8 0c.3 0 .6.3.6.6 0 .6-1 .9-1.5 1-1.2.4-1.8 1-1.4 2 .3.6 1.8 3.8 5.2 4.4.3 0 .2.4.1.5z"/></svg>