<?xml version="1.0" encoding="utf-8"?>
<!-- Generator: Adobe Illustrator 21.0.2, SVG Export Plug-In . SVG Version: 6.00 Build 0)  -->
<svg version="1.1" id="Lager_1" xmlns="http://www.w3.org/2000/svg" xmlns:xlink="http://www.w3.org/1999/xlink" x="0px" y="0px"
	 viewBox="0 0 16 16" enable-background="new 0 0 16 16" xml:space="preserve">
<title>Layer 1</title>
<path id="svg_1" fill="#FFFFFF" d="M1,1h14v14H1V1z"/>
<path id="svg_2" fill="#999999" d="M1,1v14h14V1H1z M2,2h12v12H2V2z"/>
<path id="svg_3" fill="#999999" stroke="#999999" d="M3.312,3.312H8.5V8.25H3.312V3.312z"/>
<path id="svg_5" fill="#999999" stroke="#999999" d="M3.375,10.105H8.5v2.536H3.375V10.105z"/>
<path id="svg_6" fill="#B2B2B2" stroke="#B2B2B2" d="M10,7.569h2.756v5.072H10C10,12.641,10,7.569,10,7.569z"/>
<line id="svg_11" fill="none" stroke="#999999" x1="-12.469" y1="4.427" x2="-12.344" y2="4.365"/>
<g>
	<title>background</title>
	<rect id="canvas_background" x="-1" y="-1" fill="none" width="18" height="18"/>
</g>
<path id="svg_6_1_" fill="#B2B2B2" stroke="#B2B2B2" d="M10,3.312h2.756V6.14H10C10,6.14,10,3.312,10,3.312z"/>
</svg>
