<?xml version="1.0" encoding="utf-8"?>
<!-- Generator: Adobe Illustrator 21.0.0, SVG Export Plug-In . SVG Version: 6.00 Build 0)  -->
<svg version="1.1" id="Layer_1" xmlns="http://www.w3.org/2000/svg" xmlns:xlink="http://www.w3.org/1999/xlink" x="0px" y="0px"
	 viewBox="0 0 198.2 64.6" style="enable-background:new 0 0 198.2 64.6;" xml:space="preserve">
<style type="text/css">
	.st0{fill:#FFFFFF;}
</style>
<g>
	<polygon class="st0" points="95.3,22.3 99.2,22.3 99.2,32.8 100.4,32.8 100.4,22.3 104.3,22.3 104.3,21.2 95.3,21.2 	"/>
	<path class="st0" d="M106.8,29c0-1.6,0.9-2.4,2.3-2.4c1.1,0,1.8,0.7,1.8,2.1v4.1h1.1v-4.1c0-2.3-0.8-3.2-2.9-3.2
		c-0.9,0-1.7,0.4-2.3,1v-6h-1.1v12.3h1.1V29z"/>
	<path class="st0" d="M120.7,30.9h-1.4c-0.5,0.6-1.2,1-2,1c-1.2,0-2.3-1-2.5-2.2h6.2h0.1v-0.4c0-2-1.7-3.7-3.7-3.7s-3.7,1.7-3.7,3.7
		s1.7,3.7,3.7,3.7C118.8,33,120.1,32.1,120.7,30.9z M117.3,26.6c1.2,0,2.3,0.9,2.5,2.1h-5C115,27.5,116,26.6,117.3,26.6z"/>
	<path class="st0" d="M134.9,24.8c0-2.2-1.5-3.6-3.7-3.6h-3.8v11.6h1.2v-4.4h2.6C133.4,28.4,134.9,27,134.9,24.8z M131.2,27.2h-2.6
		v-5h2.6c1.5,0,2.5,1,2.5,2.5S132.7,27.2,131.2,27.2z"/>
	<path class="st0" d="M142.7,29.2c0-2-1.7-3.7-3.7-3.7s-3.7,1.7-3.7,3.7s1.7,3.8,3.7,3.7C141,32.9,142.7,31.2,142.7,29.2z
		 M139.1,31.9c-1.5,0-2.6-1.3-2.6-2.7c0-1.4,1.1-2.6,2.6-2.6s2.6,1.2,2.6,2.6C141.7,30.6,140.5,31.9,139.1,31.9z"/>
	<polygon class="st0" points="147.1,32.8 149.2,27.2 151.3,32.8 152.4,32.8 155,25.6 153.9,25.6 151.8,31.2 149.7,25.6 148.6,25.6 
		146.5,31.2 144.4,25.6 143.3,25.6 146,32.8 	"/>
	<path class="st0" d="M159.5,33c1.4,0,2.7-0.9,3.3-2.1h-1.4c-0.5,0.6-1.2,1-2,1c-1.2,0-2.3-1-2.5-2.2h6.2h0.1v-0.4
		c0-2-1.7-3.7-3.7-3.7s-3.7,1.7-3.7,3.7S157.5,33,159.5,33z M159.3,26.6c1.2,0,2.3,0.9,2.5,2.1h-5C157.1,27.5,158.1,26.6,159.3,26.6
		z"/>
	<path class="st0" d="M168.3,25.5c-1,0-1.8,0.4-2.4,1.1v-1h-1.1v7.2h1.1v-4c0-1.4,1.1-2.2,2.4-2.2V25.5z"/>
	<path class="st0" d="M100.4,41.3c-2,0-3.7,1.7-3.7,3.7s1.7,3.8,3.7,3.7c2,0,3.7-1.7,3.7-3.7S102.4,41.3,100.4,41.3z M100.4,47.7
		c-1.5,0-2.6-1.3-2.6-2.7c0-1.4,1.2-2.6,2.6-2.6c1.5,0,2.6,1.2,2.6,2.6C103,46.4,101.8,47.7,100.4,47.7z"/>
	<path class="st0" d="M106.3,48.6h1.1v-6.2h1.4v-1h-1.4v-1c0-1.1-0.2-2.7,1.5-2.5v-1c-2.6-0.3-2.6,1.7-2.6,3.5v1h-1v1h1V48.6z"/>
	<rect x="115.3" y="37" class="st0" width="1.2" height="11.6"/>
	<path class="st0" d="M124.1,44.5v4.1h1.1v-4.1c0-2.3-0.8-3.2-2.9-3.2c-0.9,0-1.7,0.4-2.3,1v-0.9h-1.1v7.2h1.1v-3.8
		c0-1.6,0.9-2.4,2.3-2.4C123.4,42.4,124.1,43.1,124.1,44.5z"/>
	<polygon class="st0" points="128.9,38.6 127.8,38.6 127.8,41.4 126.7,41.4 126.7,42.4 127.8,42.4 127.8,48.6 128.9,48.6 
		128.9,42.4 130.5,42.4 130.5,41.4 128.9,41.4 	"/>
	<path class="st0" d="M135.2,41.4c-2,0-3.7,1.7-3.7,3.7s1.7,3.7,3.7,3.7c1.4,0,2.7-0.9,3.3-2.1h-1.4c-0.5,0.6-1.2,1-2,1
		c-1.2,0-2.3-1-2.5-2.2h6.2h0.1v-0.4C138.9,43.1,137.2,41.4,135.2,41.4z M132.6,44.5c0.2-1.2,1.2-2.1,2.5-2.1c1.2,0,2.3,0.9,2.5,2.1
		H132.6z"/>
	<path class="st0" d="M140.5,41.4v7.2h1.1v-4c0-1.4,1.1-2.2,2.4-2.2v-1.1c-1,0-1.8,0.4-2.4,1.1v-1H140.5z"/>
	<path class="st0" d="M150.7,44.5v4.1h1.1v-4.1c0-2.3-0.8-3.2-2.9-3.2c-0.9,0-1.7,0.4-2.3,1v-0.9h-1.1v7.2h1.1v-3.8
		c0-1.6,0.9-2.4,2.3-2.4C150,42.4,150.7,43.1,150.7,44.5z"/>
	<path class="st0" d="M159.8,48.6h1.1v-7.2h-1.1v1.2c-0.6-0.8-1.6-1.3-2.7-1.3c-2,0-3.7,1.7-3.7,3.7s1.7,3.8,3.7,3.7
		c1.1,0,2-0.5,2.7-1.3V48.6z M157.1,47.7c-1.4,0-2.5-1.3-2.5-2.7c0-1.4,1.1-2.6,2.5-2.6c1.4,0,2.7,1.2,2.7,2.6
		C159.8,46.4,158.5,47.7,157.1,47.7z"/>
	<polygon class="st0" points="164.7,38.6 163.6,38.6 163.6,41.4 162.5,41.4 162.5,42.4 163.6,42.4 163.6,48.6 164.7,48.6 
		164.7,42.4 166.3,42.4 166.3,41.4 164.7,41.4 	"/>
	<path class="st0" d="M168.4,38.5c-0.5,0-0.8,0.3-0.8,0.7c0,0.4,0.4,0.8,0.8,0.8s0.8-0.4,0.8-0.8C169.2,38.9,168.8,38.5,168.4,38.5z
		"/>
	<rect x="167.8" y="41.4" class="st0" width="1.1" height="7.2"/>
	<path class="st0" d="M174.4,41.3c-2,0-3.7,1.7-3.7,3.7s1.7,3.8,3.7,3.7c2,0,3.7-1.7,3.7-3.7S176.4,41.3,174.4,41.3z M174.4,47.7
		c-1.5,0-2.6-1.3-2.6-2.7c0-1.4,1.2-2.6,2.6-2.6c1.5,0,2.6,1.2,2.6,2.6C177,46.4,175.8,47.7,174.4,47.7z"/>
	<path class="st0" d="M182.9,41.3c-0.9,0-1.7,0.4-2.3,1v-0.9h-1.1v7.2h1.1v-3.8c0-1.6,0.9-2.4,2.3-2.4c1.1,0,1.8,0.7,1.8,2.1v4.1
		h1.1v-4.1C185.8,42.2,185,41.3,182.9,41.3z"/>
	<path class="st0" d="M193.8,42.6c-0.6-0.8-1.6-1.3-2.7-1.3c-2,0-3.7,1.7-3.7,3.7s1.7,3.8,3.7,3.7c1.1,0,2-0.5,2.7-1.3v1.2h1.1v-7.2
		h-1.1V42.6z M191.1,47.7c-1.4,0-2.5-1.3-2.5-2.7c0-1.4,1.1-2.6,2.5-2.6c1.4,0,2.7,1.2,2.7,2.6C193.8,46.4,192.5,47.7,191.1,47.7z"
		/>
	<rect x="197.1" y="37" class="st0" width="1.1" height="11.6"/>
	<polygon class="st0" points="97.4,64.3 104.1,64.3 104.1,63.2 98.6,63.2 98.6,58.3 103.8,58.3 103.8,57.2 98.6,57.2 98.6,53.9 
		104.1,53.9 104.1,52.8 97.4,52.8 	"/>
	<path class="st0" d="M111.7,58.5c-0.6-0.8-1.6-1.3-2.7-1.3c-2,0-3.7,1.7-3.7,3.7s1.7,3.7,3.7,3.7c1.1,0,2-0.5,2.7-1.3v1.2h1.1V52.9
		h-1.1V58.5z M108.9,63.5c-1.4,0-2.5-1.3-2.5-2.7c0-1.4,1.1-2.6,2.5-2.6c1.4,0,2.7,1.2,2.7,2.6C111.6,62.3,110.4,63.5,108.9,63.5z"
		/>
	<path class="st0" d="M120.1,61c0,1.6-0.9,2.4-2.3,2.4c-1.1,0-1.8-0.7-1.8-2.1v-4.1h-1.1v4.1c0,2.3,0.8,3.2,2.9,3.2
		c0.9,0,1.7-0.4,2.3-1v0.9h1.1v-7.2h-1.1V61z"/>
	<path class="st0" d="M126.6,58.2c1,0,1.9,0.6,2.3,1.4h1.2c-0.5-1.4-1.9-2.4-3.5-2.4c-2,0-3.7,1.7-3.7,3.7s1.7,3.7,3.7,3.7
		c1.6,0,3-1.1,3.5-2.5h-1.2c-0.5,0.8-1.3,1.4-2.3,1.4c-1.5,0-2.6-1.3-2.6-2.7C124,59.4,125.2,58.2,126.6,58.2z"/>
	<path class="st0" d="M137.7,58.4c-0.6-0.8-1.6-1.3-2.7-1.3c-2,0-3.7,1.7-3.7,3.7c0,2.1,1.6,3.8,3.7,3.7c1.1,0,2-0.5,2.7-1.3v1.2
		h1.1v-7.2h-1.1V58.4z M134.9,63.5c-1.4,0-2.5-1.3-2.5-2.7c0-1.4,1.1-2.6,2.5-2.6c1.4,0,2.7,1.2,2.7,2.6
		C137.6,62.3,136.3,63.5,134.9,63.5z"/>
	<polygon class="st0" points="142.5,54.4 141.4,54.4 141.4,57.2 140.3,57.2 140.3,58.2 141.4,58.2 141.4,64.4 142.5,64.4 
		142.5,58.2 144.1,58.2 144.1,57.2 142.5,57.2 	"/>
	<rect x="145.7" y="57.3" class="st0" width="1.1" height="7.2"/>
	<path class="st0" d="M146.3,54.3c-0.5,0-0.8,0.3-0.8,0.7c0,0.5,0.3,0.8,0.8,0.8c0.4,0,0.8-0.4,0.8-0.8
		C147.1,54.7,146.7,54.3,146.3,54.3z"/>
	<path class="st0" d="M152.3,57.1c-2,0-3.7,1.7-3.7,3.7c0,2.1,1.6,3.8,3.7,3.7c2,0,3.7-1.7,3.7-3.7S154.3,57.1,152.3,57.1z
		 M152.3,63.5c-1.5,0-2.6-1.3-2.6-2.7c0-1.4,1.1-2.6,2.6-2.6s2.6,1.2,2.6,2.6C154.9,62.2,153.7,63.5,152.3,63.5z"/>
	<path class="st0" d="M161.1,57.2c-0.9,0-1.7,0.4-2.3,1v-0.9h-1v7.2h1.1v-3.8c0-1.6,0.9-2.4,2.3-2.4c1.1,0,1.8,0.7,1.8,2.1v4.1h1
		v-4.1C164,58.1,163.2,57.2,161.1,57.2z"/>
	<rect y="21.1" class="st0" width="15.2" height="43.3"/>
	<rect x="23" y="21.1" class="st0" width="15.2" height="43.3"/>
	<path class="st0" d="M64.1,21.2c-11.9,0-21.5,9.8-21.5,21.7c0,0.7,0,1.5,0.1,2.2C43.8,56,53,64.5,64.1,64.5c9,0,16.8-5.6,20-13.4
		l-11.8-3.5c-1.5,3.3-4.6,5.5-8.2,5.5c-4.4,0-8-3.4-8.9-7.9h17.9h8.2h4.3c0.1-0.7,0.1-1.6,0.1-2.4C85.7,30.9,76,21.2,64.1,21.2z
		 M55.9,38.4c1.5-3.3,4.6-5.6,8.2-5.6c3.6,0,6.7,2.3,8.2,5.6H55.9z"/>
	<path class="st0" d="M7.5,15c2.4,0,4.5-1.1,5.8-2.8c-1-1.3-1.6-2.9-1.6-4.7c0-1.8,0.6-3.4,1.6-4.7C12,1.1,9.9,0,7.5,0
		C3.4,0,0,3.4,0,7.5C0,11.6,3.4,15,7.5,15z"/>
	<path class="st0" d="M25,12.2c-1-1.3-1.6-2.9-1.6-4.7c0-1.8,0.6-3.4,1.6-4.7C23.7,1.1,21.6,0,19.2,0c-2.4,0-4.5,1.1-5.8,2.8
		c1,1.3,1.6,2.9,1.6,4.7c0,1.8-0.6,3.4-1.6,4.7c1.4,1.7,3.5,2.8,5.8,2.8C21.6,15,23.7,13.9,25,12.2z"/>
	<path class="st0" d="M30.9,0c-2.4,0-4.5,1.1-5.8,2.8c1,1.3,1.6,2.9,1.6,4.7c0,1.8-0.6,3.4-1.6,4.7c1.4,1.7,3.5,2.8,5.8,2.8
		c4.1,0,7.5-3.4,7.5-7.5C38.4,3.4,35,0,30.9,0z"/>
	<path class="st0" d="M89.3,22.3c-0.3-0.3-0.7-0.6-1.2-0.8c-0.5-0.2-0.9-0.3-1.4-0.3c-0.5,0-1,0.1-1.4,0.3c-0.5,0.2-0.8,0.4-1.2,0.8
		c-0.3,0.3-0.6,0.7-0.8,1.2c-0.2,0.5-0.3,0.9-0.3,1.5c0,0.5,0.1,1,0.3,1.5c0.2,0.4,0.5,0.8,0.8,1.2c0.3,0.3,0.7,0.6,1.2,0.8
		c0.5,0.2,0.9,0.3,1.4,0.3c0.5,0,1-0.1,1.4-0.3c0.5-0.2,0.9-0.4,1.2-0.8c0.3-0.3,0.6-0.7,0.8-1.2c0.2-0.5,0.3-0.9,0.3-1.5
		c0-0.5-0.1-1-0.3-1.5C89.9,23,89.6,22.6,89.3,22.3z M89.5,26.2c-0.2,0.4-0.4,0.7-0.7,1c-0.3,0.3-0.6,0.5-1,0.7
		c-0.4,0.2-0.8,0.2-1.2,0.2c-0.4,0-0.8-0.1-1.2-0.2c-0.4-0.2-0.7-0.4-1-0.7c-0.3-0.3-0.5-0.6-0.7-1c-0.2-0.4-0.2-0.8-0.2-1.2
		c0-0.5,0.1-0.9,0.2-1.3c0.2-0.4,0.4-0.7,0.7-1c0.3-0.3,0.6-0.5,1-0.7c0.4-0.2,0.8-0.2,1.2-0.2c0.4,0,0.8,0.1,1.2,0.2
		c0.4,0.2,0.7,0.4,1,0.7c0.3,0.3,0.5,0.6,0.7,1c0.2,0.4,0.2,0.8,0.2,1.2C89.8,25.4,89.7,25.8,89.5,26.2z"/>
	<path class="st0" d="M88,24.9c0.2-0.2,0.3-0.5,0.3-0.8c0-0.4-0.1-0.7-0.4-0.9c-0.2-0.2-0.6-0.3-1.1-0.3h-1.6v4.3h0.6v-1.8h0.8
		l1.2,1.8h0.6l-1.2-1.9C87.5,25.2,87.8,25.1,88,24.9z M86.6,24.7h-0.7v-1.4h0.9c0.1,0,0.2,0,0.3,0c0.1,0,0.2,0,0.3,0.1
		c0.1,0,0.2,0.1,0.2,0.2c0.1,0.1,0.1,0.2,0.1,0.4c0,0.2,0,0.3-0.1,0.4c-0.1,0.1-0.1,0.2-0.3,0.2c-0.1,0-0.2,0.1-0.4,0.1
		C86.9,24.7,86.7,24.7,86.6,24.7z"/>
</g>
</svg>
