<svg xmlns="http://www.w3.org/2000/svg" width="145" height="38" viewBox="0 0 145 38"><path d="M80.588 14.53v23.446H70.377c-.044-.281-.132-.6-.132-.918-.006-6.991-.006-13.976-.006-20.967 0-.444.018-.887-.007-1.33-.025-.512.195-.705.703-.7 2.973.013 5.946.007 8.92.007.821 0 .827-.006.564-.749-.558-1.548-1.13-3.096-1.681-4.644-.125-.35-.345-.456-.715-.456-2.515.019-5.024.006-7.584.006-.062-.237-.182-.474-.182-.705-.012-2.478-.006-4.956-.006-7.484.226-.013.42-.032.615-.032 4.31 0 8.618.007 12.928-.012.414 0 .583.106.74.524.834 2.254 1.737 4.488 2.59 6.736.941 2.478 1.85 4.968 2.785 7.447.345.905.722 1.797 1.155 2.877.213-.393.382-.643.489-.911.665-1.735 1.33-3.47 1.976-5.212.558-1.511 1.072-3.034 1.637-4.539.62-1.647 1.273-3.277 1.907-4.912.207-.543.376-1.099.614-1.63.076-.162.32-.355.483-.355 4.391-.019 8.776-.019 13.217-.019v37.965h-10.112V14.38c-.244.256-.42.362-.476.512a463.825 463.825 0 0 0-2.353 6.436c-.564 1.58-1.066 3.183-1.63 4.763-.697 1.947-1.437 3.876-2.12 5.83-.132.374-.327.487-.684.487a477.683 477.683 0 0 0-6.104.006c-.382.006-.533-.175-.64-.474-.827-2.235-1.655-4.476-2.477-6.71a801.716 801.716 0 0 1-3.136-8.447c-.201-.561-.358-1.142-.565-1.704-.075-.212-.238-.387-.364-.574-.044.006-.094.019-.138.025M45.33 12.758c0 1.33.006 2.659 0 3.989 0 .362.088.655.502.649 2.026-.025 4.058.012 6.072-.15 1.104-.087 2.101-.637 2.816-1.592.935-1.254 1.098-2.615.81-4.12-.32-1.66-2.09-3.283-3.79-3.302-1.956-.019-3.907.006-5.864-.012-.414 0-.559.13-.552.549.019 1.33.006 2.66.006 3.989m0 25.243H34.723V.036c.176-.006.364-.025.558-.025 6.229 0 12.451-.031 18.68.025 1.035.006 2.07.337 3.092.574 2.328.544 4.397 1.586 6.04 3.334 1.419 1.504 2.272 3.308 2.736 5.337.345 1.498.313 3.009.157 4.47-.151 1.398-.647 2.796-1.217 4.1-.84 1.923-2.271 3.409-4.046 4.545-.314.2-.646.362-.985.518-.452.206-.633.443-.326.949.853 1.435 1.662 2.902 2.496 4.357.941 1.635 1.882 3.264 2.823 4.9.784 1.36 1.58 2.722 2.352 4.095.12.212.145.474.226.768H55.673c-.27-.55-.508-1.068-.777-1.573a1767.405 1767.405 0 0 0-3.933-7.46c-.634-1.198-1.261-2.403-1.932-3.583-.126-.218-.464-.418-.722-.437-.815-.056-1.637-.006-2.452-.031-.383-.006-.496.175-.52.487-.013.137-.007.274-.007.418v12.198zM116.49.037h28.332v7.278c0 .794 0 .794-.771.794h-15.92c-.182 0-.364-.025-.54.012-.382.081-.633.231-.62.737a164.8 164.8 0 0 1 .006 5.536c-.006.519.182.631.665.631 4.39-.013 8.782-.006 13.166-.006.345 0 .69-.025 1.022.037.107.019.226.287.233.45.025.755.012 1.51.012 2.266 0 1.529-.006 3.058.006 4.588 0 .437-.044.724-.627.549-.276-.081-.615.087-.922.087-3.908.007-7.822.007-11.73.007-.407 0-.815.024-1.217-.007-.414-.03-.59.144-.59.53 0 1.948-.005 3.89 0 5.837 0 .381.133.487.584.468 1.167-.043 2.334.05 3.5.07.728.012 1.462.005 2.19.005 3.594 0 7.182 0 10.776.007.326 0 .652.068.972.106v7.94l-28.528.006V.037zM10.73 12.818v3.808c0 .774 0 .774.815.78 1.556 0 3.111.006 4.667-.006.389-.007.784-.05 1.167-.119 1.442-.275 2.584-.992 3.28-2.31.54-1.023.603-2.078.408-3.245-.364-2.154-2.12-3.34-3.927-3.465-1.95-.137-3.907-.025-5.864-.037-.414-.007-.559.13-.552.549.018 1.348.006 2.697.006 4.045m0 25.169H-.003V.009h.678C6.94.009 13.2-.01 19.46.028a8.918 8.918 0 0 1 2.597.405c1.324.419 2.672.862 3.883 1.517 1.926 1.049 3.35 2.622 4.378 4.6 1.286 2.466 1.455 5.1 1.192 7.735-.282 2.815-1.38 5.4-3.437 7.44a11.392 11.392 0 0 1-4.755 2.84 16.39 16.39 0 0 1-5.275.706c-1.637-.037-3.268-.006-4.905-.006-.584 0-1.16.012-1.744-.006-.496-.02-.69.15-.684.68.031 3.795.019 7.59.019 11.38v.668" fill="#fff"/></svg>